G04 MADE WITH FRITZING*
G04 WWW.FRITZING.ORG*
G04 DOUBLE SIDED*
G04 HOLES PLATED*
G04 CONTOUR ON CENTER OF CONTOUR VECTOR*
%ASAXBY*%
%FSLAX23Y23*%
%MOIN*%
%OFA0B0*%
%SFA1.0B1.0*%
%ADD10C,0.039370*%
%ADD11C,0.075000*%
%ADD12C,0.078000*%
%ADD13C,0.065000*%
%ADD14C,0.080000*%
%ADD15C,0.073379*%
%ADD16C,0.074000*%
%ADD17R,0.078000X0.078000*%
%ADD18C,0.024000*%
%ADD19C,0.032000*%
%ADD20R,0.001000X0.001000*%
%LNCOPPER1*%
G90*
G70*
G54D10*
X2080Y335D03*
X1980Y634D03*
X2180Y633D03*
X1579Y2232D03*
X2779Y2834D03*
X1979Y533D03*
X1979Y433D03*
X2079Y134D03*
G54D11*
X479Y2757D03*
X223Y2757D03*
X479Y2934D03*
X223Y2934D03*
G54D12*
X799Y2534D03*
X799Y2434D03*
X799Y2334D03*
G54D13*
X1979Y2455D03*
X1979Y2534D03*
X1979Y2612D03*
X1979Y2691D03*
G54D14*
X280Y978D03*
X280Y781D03*
X280Y1518D03*
X280Y1321D03*
G54D15*
X1479Y1934D03*
X1379Y1934D03*
X1279Y1934D03*
X1179Y1934D03*
X1079Y1934D03*
G54D12*
X699Y2034D03*
X699Y1934D03*
X699Y1834D03*
G54D14*
X279Y431D03*
X279Y234D03*
G54D11*
X979Y2734D03*
X579Y2734D03*
X2579Y2634D03*
X2179Y2634D03*
X2579Y2534D03*
X2179Y2534D03*
X2579Y2434D03*
X2179Y2434D03*
G54D12*
X1099Y2534D03*
X1099Y2434D03*
X1099Y2334D03*
X279Y2534D03*
X279Y2434D03*
X279Y2334D03*
X2079Y734D03*
X1979Y734D03*
X1879Y734D03*
X1779Y734D03*
X1479Y1334D03*
X1379Y1334D03*
X1279Y1334D03*
X1179Y1334D03*
X1479Y1634D03*
X1379Y1634D03*
X1279Y1634D03*
X1179Y1634D03*
X2079Y1034D03*
X1979Y1034D03*
X1879Y1034D03*
X1779Y1034D03*
X2079Y1634D03*
X1979Y1634D03*
X1879Y1634D03*
X1779Y1634D03*
G54D14*
X268Y2046D03*
X268Y1849D03*
G54D12*
X2579Y334D03*
X2579Y434D03*
X2579Y534D03*
X2579Y634D03*
X2579Y734D03*
X2579Y834D03*
X2579Y934D03*
X2579Y1034D03*
X2579Y1134D03*
X2579Y1234D03*
X2579Y1334D03*
X2579Y1434D03*
X2579Y1534D03*
X2579Y1634D03*
X2579Y1734D03*
X2579Y1834D03*
X2579Y1934D03*
X2579Y2034D03*
X2579Y2134D03*
X2579Y2234D03*
X2579Y334D03*
X2579Y434D03*
X2579Y534D03*
X2579Y634D03*
X2579Y734D03*
X2579Y834D03*
X2579Y934D03*
X2579Y1034D03*
X2579Y1134D03*
X2579Y1234D03*
X2579Y1334D03*
X2579Y1434D03*
X2579Y1534D03*
X2579Y1634D03*
X2579Y1734D03*
X2579Y1834D03*
X2579Y1934D03*
X2579Y2034D03*
X2579Y2134D03*
X2579Y2234D03*
X2479Y2234D03*
X2479Y2134D03*
X2479Y2034D03*
X2479Y1934D03*
X2479Y1834D03*
X2479Y1734D03*
X2479Y1634D03*
X2479Y1534D03*
X2479Y1434D03*
X2479Y1334D03*
X2479Y1234D03*
X2479Y1134D03*
X2479Y1034D03*
X2479Y934D03*
X2479Y834D03*
X2479Y734D03*
X2479Y634D03*
X2479Y534D03*
X2479Y434D03*
X2479Y334D03*
X2079Y1934D03*
X1979Y1934D03*
X1879Y1934D03*
X1779Y1934D03*
X2079Y1334D03*
X1979Y1334D03*
X1879Y1334D03*
X1779Y1334D03*
G54D16*
X779Y134D03*
X779Y234D03*
X779Y334D03*
X779Y434D03*
X779Y534D03*
X779Y634D03*
X779Y734D03*
X779Y834D03*
X1379Y834D03*
X1379Y734D03*
X1379Y634D03*
X1379Y534D03*
X1379Y434D03*
X1379Y334D03*
X1379Y234D03*
X1379Y134D03*
G54D17*
X799Y2534D03*
X1099Y2534D03*
X279Y2534D03*
G54D18*
X2679Y2034D02*
X2678Y2432D01*
D02*
X2679Y1935D02*
X2679Y2034D01*
D02*
X2678Y2432D02*
X2592Y2521D01*
D02*
X2593Y1847D02*
X2679Y1935D01*
D02*
X2162Y2436D02*
X1992Y2454D01*
D02*
X2163Y2540D02*
X1991Y2608D01*
D02*
X2163Y2639D02*
X1991Y2688D01*
D02*
X2779Y2826D02*
X2779Y1733D01*
D02*
X2779Y1733D02*
X2593Y1547D01*
D02*
X2460Y334D02*
X2087Y335D01*
D02*
X2172Y633D02*
X1988Y634D01*
D02*
X181Y834D02*
X259Y792D01*
D02*
X262Y1305D02*
X179Y1233D01*
D02*
X179Y1233D02*
X181Y834D01*
D02*
X1380Y2035D02*
X1295Y1949D01*
D02*
X1479Y1912D02*
X1479Y1653D01*
D02*
X1279Y1912D02*
X1279Y1653D01*
D02*
X1179Y1912D02*
X1179Y1653D01*
D02*
X1479Y1353D02*
X1479Y1615D01*
D02*
X1379Y1653D02*
X1379Y1912D01*
D02*
X979Y2034D02*
X979Y2716D01*
D02*
X496Y2753D02*
X562Y2738D01*
D02*
X1179Y1353D02*
X1179Y1615D01*
D02*
X1279Y1353D02*
X1279Y1615D01*
D02*
X1379Y1615D02*
X1379Y1353D01*
D02*
X581Y2932D02*
X497Y2934D01*
D02*
X1081Y2932D02*
X581Y2932D01*
D02*
X1780Y2335D02*
X1081Y2932D01*
D02*
X2478Y2335D02*
X1780Y2335D01*
D02*
X2566Y2247D02*
X2478Y2335D01*
D02*
X879Y2133D02*
X712Y1948D01*
D02*
X879Y2336D02*
X879Y2133D01*
D02*
X811Y2419D02*
X879Y2336D01*
D02*
X479Y2234D02*
X286Y2062D01*
D02*
X479Y2434D02*
X479Y2234D01*
D02*
X581Y2536D02*
X479Y2434D01*
D02*
X780Y2534D02*
X581Y2536D01*
D02*
X1779Y1015D02*
X1779Y753D01*
D02*
X2079Y833D02*
X1893Y1020D01*
D02*
X2379Y633D02*
X2179Y833D01*
D02*
X2179Y833D02*
X2079Y833D01*
D02*
X2479Y633D02*
X2379Y633D01*
D02*
X2479Y633D02*
X2479Y633D01*
D02*
X1481Y633D02*
X1378Y633D01*
D02*
X1378Y633D02*
X1378Y633D01*
D02*
X2679Y33D02*
X2079Y35D01*
D02*
X2074Y139D02*
X1478Y733D01*
D02*
X2779Y133D02*
X2679Y33D01*
D02*
X2779Y534D02*
X2779Y133D01*
D02*
X2079Y35D02*
X1481Y633D01*
D02*
X2593Y720D02*
X2779Y534D01*
D02*
X2460Y434D02*
X1986Y433D01*
D02*
X2460Y534D02*
X1986Y533D01*
D02*
X1879Y433D02*
X1879Y715D01*
D02*
X2579Y233D02*
X2079Y233D01*
D02*
X2079Y233D02*
X1879Y433D01*
D02*
X2679Y333D02*
X2579Y233D01*
D02*
X2679Y434D02*
X2679Y333D01*
D02*
X2593Y520D02*
X2679Y434D01*
D02*
X1380Y2133D02*
X1195Y1949D01*
D02*
X2460Y2134D02*
X1380Y2133D01*
D02*
X2460Y2234D02*
X1587Y2232D01*
D02*
X1478Y733D02*
X1399Y734D01*
D02*
X2460Y2034D02*
X1380Y2035D01*
D02*
X2579Y1515D02*
X2579Y1453D01*
D02*
X780Y1333D02*
X303Y1321D01*
D02*
X981Y2034D02*
X879Y1932D01*
D02*
X879Y1932D02*
X879Y1433D01*
D02*
X879Y1433D02*
X780Y1333D01*
D02*
X979Y2034D02*
X981Y2034D01*
G54D19*
D02*
X779Y434D02*
X779Y434D01*
G54D18*
D02*
X2280Y1035D02*
X2098Y1034D01*
D02*
X2460Y1034D02*
X2280Y1035D01*
D02*
X1280Y1034D02*
X1760Y1034D01*
D02*
X878Y734D02*
X1280Y1034D01*
D02*
X799Y734D02*
X878Y734D01*
G54D19*
D02*
X679Y434D02*
X779Y434D01*
D02*
X479Y234D02*
X679Y434D01*
G54D18*
D02*
X178Y1434D02*
X178Y1735D01*
D02*
X178Y1735D02*
X254Y1831D01*
D02*
X264Y1338D02*
X178Y1434D01*
G54D19*
D02*
X303Y234D02*
X479Y234D01*
G54D18*
D02*
X2079Y934D02*
X1993Y1020D01*
D02*
X2179Y934D02*
X2079Y934D01*
D02*
X2379Y733D02*
X2179Y934D01*
D02*
X2460Y734D02*
X2379Y733D01*
D02*
X680Y1835D02*
X292Y1849D01*
G54D19*
D02*
X479Y434D02*
X579Y534D01*
D02*
X381Y633D02*
X293Y761D01*
D02*
X759Y634D02*
X381Y633D01*
D02*
X579Y534D02*
X759Y534D01*
D02*
X303Y431D02*
X479Y434D01*
G54D18*
D02*
X1779Y1053D02*
X1779Y1315D01*
D02*
X1779Y1353D02*
X1779Y1615D01*
D02*
X2079Y1053D02*
X2079Y1315D01*
D02*
X2079Y1353D02*
X2079Y1615D01*
D02*
X2079Y1653D02*
X2079Y1915D01*
D02*
X1779Y1653D02*
X1779Y1915D01*
G54D20*
X715Y862D02*
X773Y862D01*
X787Y862D02*
X845Y862D01*
X1315Y862D02*
X1373Y862D01*
X1387Y862D02*
X1445Y862D01*
X715Y861D02*
X770Y861D01*
X790Y861D02*
X845Y861D01*
X1315Y861D02*
X1370Y861D01*
X1390Y861D02*
X1445Y861D01*
X715Y860D02*
X767Y860D01*
X792Y860D02*
X845Y860D01*
X1315Y860D02*
X1367Y860D01*
X1392Y860D02*
X1445Y860D01*
X715Y859D02*
X765Y859D01*
X794Y859D02*
X845Y859D01*
X1315Y859D02*
X1365Y859D01*
X1394Y859D02*
X1445Y859D01*
X715Y858D02*
X764Y858D01*
X796Y858D02*
X845Y858D01*
X1315Y858D02*
X1364Y858D01*
X1396Y858D02*
X1445Y858D01*
X715Y857D02*
X762Y857D01*
X797Y857D02*
X845Y857D01*
X1315Y857D02*
X1362Y857D01*
X1397Y857D02*
X1445Y857D01*
X715Y856D02*
X761Y856D01*
X799Y856D02*
X845Y856D01*
X1315Y856D02*
X1361Y856D01*
X1398Y856D02*
X1445Y856D01*
X715Y855D02*
X760Y855D01*
X800Y855D02*
X845Y855D01*
X1315Y855D02*
X1360Y855D01*
X1400Y855D02*
X1445Y855D01*
X715Y854D02*
X759Y854D01*
X801Y854D02*
X845Y854D01*
X1315Y854D02*
X1359Y854D01*
X1401Y854D02*
X1445Y854D01*
X715Y853D02*
X758Y853D01*
X802Y853D02*
X845Y853D01*
X1315Y853D02*
X1358Y853D01*
X1402Y853D02*
X1445Y853D01*
X715Y852D02*
X757Y852D01*
X802Y852D02*
X845Y852D01*
X1315Y852D02*
X1357Y852D01*
X1402Y852D02*
X1445Y852D01*
X715Y851D02*
X756Y851D01*
X803Y851D02*
X845Y851D01*
X1315Y851D02*
X1356Y851D01*
X1403Y851D02*
X1445Y851D01*
X715Y850D02*
X756Y850D01*
X804Y850D02*
X845Y850D01*
X1315Y850D02*
X1356Y850D01*
X1404Y850D02*
X1445Y850D01*
X715Y849D02*
X755Y849D01*
X805Y849D02*
X845Y849D01*
X1315Y849D02*
X1355Y849D01*
X1405Y849D02*
X1445Y849D01*
X715Y848D02*
X754Y848D01*
X805Y848D02*
X845Y848D01*
X1315Y848D02*
X1354Y848D01*
X1405Y848D02*
X1445Y848D01*
X715Y847D02*
X754Y847D01*
X806Y847D02*
X845Y847D01*
X1315Y847D02*
X1354Y847D01*
X1406Y847D02*
X1445Y847D01*
X715Y846D02*
X753Y846D01*
X806Y846D02*
X845Y846D01*
X1315Y846D02*
X1353Y846D01*
X1406Y846D02*
X1445Y846D01*
X715Y845D02*
X753Y845D01*
X807Y845D02*
X845Y845D01*
X1315Y845D02*
X1353Y845D01*
X1407Y845D02*
X1445Y845D01*
X715Y844D02*
X753Y844D01*
X807Y844D02*
X845Y844D01*
X1315Y844D02*
X1353Y844D01*
X1407Y844D02*
X1445Y844D01*
X715Y843D02*
X752Y843D01*
X807Y843D02*
X845Y843D01*
X1315Y843D02*
X1352Y843D01*
X1407Y843D02*
X1445Y843D01*
X715Y842D02*
X752Y842D01*
X808Y842D02*
X845Y842D01*
X1315Y842D02*
X1352Y842D01*
X1408Y842D02*
X1445Y842D01*
X715Y841D02*
X752Y841D01*
X808Y841D02*
X845Y841D01*
X1315Y841D02*
X1352Y841D01*
X1408Y841D02*
X1445Y841D01*
X715Y840D02*
X751Y840D01*
X808Y840D02*
X845Y840D01*
X1315Y840D02*
X1351Y840D01*
X1408Y840D02*
X1445Y840D01*
X715Y839D02*
X751Y839D01*
X808Y839D02*
X845Y839D01*
X1315Y839D02*
X1351Y839D01*
X1408Y839D02*
X1445Y839D01*
X715Y838D02*
X751Y838D01*
X809Y838D02*
X845Y838D01*
X1315Y838D02*
X1351Y838D01*
X1408Y838D02*
X1445Y838D01*
X715Y837D02*
X751Y837D01*
X809Y837D02*
X845Y837D01*
X1315Y837D02*
X1351Y837D01*
X1409Y837D02*
X1445Y837D01*
X715Y836D02*
X751Y836D01*
X809Y836D02*
X845Y836D01*
X1315Y836D02*
X1351Y836D01*
X1409Y836D02*
X1445Y836D01*
X715Y835D02*
X751Y835D01*
X809Y835D02*
X845Y835D01*
X1315Y835D02*
X1351Y835D01*
X1409Y835D02*
X1445Y835D01*
X715Y834D02*
X751Y834D01*
X809Y834D02*
X845Y834D01*
X1315Y834D02*
X1351Y834D01*
X1409Y834D02*
X1445Y834D01*
X715Y833D02*
X751Y833D01*
X809Y833D02*
X845Y833D01*
X1315Y833D02*
X1351Y833D01*
X1409Y833D02*
X1445Y833D01*
X715Y832D02*
X751Y832D01*
X809Y832D02*
X845Y832D01*
X1315Y832D02*
X1351Y832D01*
X1409Y832D02*
X1445Y832D01*
X715Y831D02*
X751Y831D01*
X809Y831D02*
X845Y831D01*
X1315Y831D02*
X1351Y831D01*
X1409Y831D02*
X1445Y831D01*
X715Y830D02*
X751Y830D01*
X808Y830D02*
X845Y830D01*
X1315Y830D02*
X1351Y830D01*
X1408Y830D02*
X1445Y830D01*
X715Y829D02*
X751Y829D01*
X808Y829D02*
X845Y829D01*
X1315Y829D02*
X1351Y829D01*
X1408Y829D02*
X1445Y829D01*
X715Y828D02*
X752Y828D01*
X808Y828D02*
X845Y828D01*
X1315Y828D02*
X1351Y828D01*
X1408Y828D02*
X1445Y828D01*
X715Y827D02*
X752Y827D01*
X808Y827D02*
X845Y827D01*
X1315Y827D02*
X1352Y827D01*
X1408Y827D02*
X1445Y827D01*
X715Y826D02*
X752Y826D01*
X808Y826D02*
X845Y826D01*
X1315Y826D02*
X1352Y826D01*
X1408Y826D02*
X1445Y826D01*
X715Y825D02*
X752Y825D01*
X807Y825D02*
X845Y825D01*
X1315Y825D02*
X1352Y825D01*
X1407Y825D02*
X1445Y825D01*
X715Y824D02*
X753Y824D01*
X807Y824D02*
X845Y824D01*
X1315Y824D02*
X1353Y824D01*
X1407Y824D02*
X1445Y824D01*
X715Y823D02*
X753Y823D01*
X806Y823D02*
X845Y823D01*
X1315Y823D02*
X1353Y823D01*
X1406Y823D02*
X1445Y823D01*
X715Y822D02*
X754Y822D01*
X806Y822D02*
X845Y822D01*
X1315Y822D02*
X1354Y822D01*
X1406Y822D02*
X1445Y822D01*
X715Y821D02*
X754Y821D01*
X806Y821D02*
X845Y821D01*
X1315Y821D02*
X1354Y821D01*
X1405Y821D02*
X1445Y821D01*
X715Y820D02*
X755Y820D01*
X805Y820D02*
X845Y820D01*
X1315Y820D02*
X1355Y820D01*
X1405Y820D02*
X1445Y820D01*
X715Y819D02*
X755Y819D01*
X804Y819D02*
X845Y819D01*
X1315Y819D02*
X1355Y819D01*
X1404Y819D02*
X1445Y819D01*
X715Y818D02*
X756Y818D01*
X804Y818D02*
X845Y818D01*
X1315Y818D02*
X1356Y818D01*
X1404Y818D02*
X1445Y818D01*
X715Y817D02*
X757Y817D01*
X803Y817D02*
X845Y817D01*
X1315Y817D02*
X1357Y817D01*
X1403Y817D02*
X1445Y817D01*
X715Y816D02*
X758Y816D01*
X802Y816D02*
X845Y816D01*
X1315Y816D02*
X1358Y816D01*
X1402Y816D02*
X1445Y816D01*
X715Y815D02*
X758Y815D01*
X801Y815D02*
X845Y815D01*
X1315Y815D02*
X1358Y815D01*
X1401Y815D02*
X1445Y815D01*
X715Y814D02*
X759Y814D01*
X800Y814D02*
X845Y814D01*
X1315Y814D02*
X1359Y814D01*
X1400Y814D02*
X1445Y814D01*
X715Y813D02*
X761Y813D01*
X799Y813D02*
X845Y813D01*
X1315Y813D02*
X1360Y813D01*
X1399Y813D02*
X1445Y813D01*
X715Y812D02*
X762Y812D01*
X798Y812D02*
X845Y812D01*
X1315Y812D02*
X1362Y812D01*
X1398Y812D02*
X1445Y812D01*
X715Y811D02*
X763Y811D01*
X797Y811D02*
X845Y811D01*
X1315Y811D02*
X1363Y811D01*
X1397Y811D02*
X1445Y811D01*
X715Y810D02*
X764Y810D01*
X795Y810D02*
X845Y810D01*
X1315Y810D02*
X1364Y810D01*
X1395Y810D02*
X1445Y810D01*
X715Y809D02*
X766Y809D01*
X793Y809D02*
X845Y809D01*
X1315Y809D02*
X1366Y809D01*
X1393Y809D02*
X1445Y809D01*
X715Y808D02*
X768Y808D01*
X791Y808D02*
X845Y808D01*
X1315Y808D02*
X1368Y808D01*
X1391Y808D02*
X1445Y808D01*
X715Y807D02*
X771Y807D01*
X789Y807D02*
X845Y807D01*
X1315Y807D02*
X1371Y807D01*
X1389Y807D02*
X1445Y807D01*
X715Y806D02*
X774Y806D01*
X786Y806D02*
X845Y806D01*
X1315Y806D02*
X1374Y806D01*
X1385Y806D02*
X1445Y806D01*
X715Y762D02*
X773Y762D01*
X787Y762D02*
X845Y762D01*
X1315Y762D02*
X1373Y762D01*
X1387Y762D02*
X1445Y762D01*
X715Y761D02*
X770Y761D01*
X790Y761D02*
X845Y761D01*
X1315Y761D02*
X1369Y761D01*
X1390Y761D02*
X1445Y761D01*
X715Y760D02*
X767Y760D01*
X792Y760D02*
X845Y760D01*
X1315Y760D02*
X1367Y760D01*
X1392Y760D02*
X1445Y760D01*
X715Y759D02*
X765Y759D01*
X794Y759D02*
X845Y759D01*
X1315Y759D02*
X1365Y759D01*
X1394Y759D02*
X1445Y759D01*
X715Y758D02*
X764Y758D01*
X796Y758D02*
X845Y758D01*
X1315Y758D02*
X1364Y758D01*
X1396Y758D02*
X1445Y758D01*
X715Y757D02*
X762Y757D01*
X797Y757D02*
X845Y757D01*
X1315Y757D02*
X1362Y757D01*
X1397Y757D02*
X1445Y757D01*
X715Y756D02*
X761Y756D01*
X799Y756D02*
X845Y756D01*
X1315Y756D02*
X1361Y756D01*
X1398Y756D02*
X1445Y756D01*
X715Y755D02*
X760Y755D01*
X800Y755D02*
X845Y755D01*
X1315Y755D02*
X1360Y755D01*
X1400Y755D02*
X1445Y755D01*
X715Y754D02*
X759Y754D01*
X801Y754D02*
X845Y754D01*
X1315Y754D02*
X1359Y754D01*
X1401Y754D02*
X1445Y754D01*
X715Y753D02*
X758Y753D01*
X802Y753D02*
X845Y753D01*
X1315Y753D02*
X1358Y753D01*
X1402Y753D02*
X1445Y753D01*
X715Y752D02*
X757Y752D01*
X802Y752D02*
X845Y752D01*
X1315Y752D02*
X1357Y752D01*
X1402Y752D02*
X1445Y752D01*
X715Y751D02*
X756Y751D01*
X803Y751D02*
X845Y751D01*
X1315Y751D02*
X1356Y751D01*
X1403Y751D02*
X1445Y751D01*
X715Y750D02*
X756Y750D01*
X804Y750D02*
X845Y750D01*
X1315Y750D02*
X1356Y750D01*
X1404Y750D02*
X1445Y750D01*
X715Y749D02*
X755Y749D01*
X805Y749D02*
X845Y749D01*
X1315Y749D02*
X1355Y749D01*
X1405Y749D02*
X1445Y749D01*
X715Y748D02*
X754Y748D01*
X805Y748D02*
X845Y748D01*
X1315Y748D02*
X1354Y748D01*
X1405Y748D02*
X1445Y748D01*
X715Y747D02*
X754Y747D01*
X806Y747D02*
X845Y747D01*
X1315Y747D02*
X1354Y747D01*
X1406Y747D02*
X1445Y747D01*
X715Y746D02*
X753Y746D01*
X806Y746D02*
X845Y746D01*
X1315Y746D02*
X1353Y746D01*
X1406Y746D02*
X1445Y746D01*
X715Y745D02*
X753Y745D01*
X807Y745D02*
X845Y745D01*
X1315Y745D02*
X1353Y745D01*
X1407Y745D02*
X1445Y745D01*
X715Y744D02*
X753Y744D01*
X807Y744D02*
X845Y744D01*
X1315Y744D02*
X1353Y744D01*
X1407Y744D02*
X1445Y744D01*
X715Y743D02*
X752Y743D01*
X807Y743D02*
X845Y743D01*
X1315Y743D02*
X1352Y743D01*
X1407Y743D02*
X1445Y743D01*
X715Y742D02*
X752Y742D01*
X808Y742D02*
X845Y742D01*
X1315Y742D02*
X1352Y742D01*
X1408Y742D02*
X1445Y742D01*
X715Y741D02*
X752Y741D01*
X808Y741D02*
X845Y741D01*
X1315Y741D02*
X1352Y741D01*
X1408Y741D02*
X1445Y741D01*
X715Y740D02*
X751Y740D01*
X808Y740D02*
X845Y740D01*
X1315Y740D02*
X1351Y740D01*
X1408Y740D02*
X1445Y740D01*
X715Y739D02*
X751Y739D01*
X808Y739D02*
X845Y739D01*
X1315Y739D02*
X1351Y739D01*
X1408Y739D02*
X1445Y739D01*
X715Y738D02*
X751Y738D01*
X809Y738D02*
X845Y738D01*
X1315Y738D02*
X1351Y738D01*
X1408Y738D02*
X1445Y738D01*
X715Y737D02*
X751Y737D01*
X809Y737D02*
X845Y737D01*
X1315Y737D02*
X1351Y737D01*
X1409Y737D02*
X1445Y737D01*
X715Y736D02*
X751Y736D01*
X809Y736D02*
X845Y736D01*
X1315Y736D02*
X1351Y736D01*
X1409Y736D02*
X1445Y736D01*
X715Y735D02*
X751Y735D01*
X809Y735D02*
X845Y735D01*
X1315Y735D02*
X1351Y735D01*
X1409Y735D02*
X1445Y735D01*
X715Y734D02*
X751Y734D01*
X809Y734D02*
X845Y734D01*
X1315Y734D02*
X1351Y734D01*
X1409Y734D02*
X1445Y734D01*
X715Y733D02*
X751Y733D01*
X809Y733D02*
X845Y733D01*
X1315Y733D02*
X1351Y733D01*
X1409Y733D02*
X1445Y733D01*
X715Y732D02*
X751Y732D01*
X809Y732D02*
X845Y732D01*
X1315Y732D02*
X1351Y732D01*
X1409Y732D02*
X1445Y732D01*
X715Y731D02*
X751Y731D01*
X809Y731D02*
X845Y731D01*
X1315Y731D02*
X1351Y731D01*
X1409Y731D02*
X1445Y731D01*
X715Y730D02*
X751Y730D01*
X808Y730D02*
X845Y730D01*
X1315Y730D02*
X1351Y730D01*
X1408Y730D02*
X1445Y730D01*
X715Y729D02*
X751Y729D01*
X808Y729D02*
X845Y729D01*
X1315Y729D02*
X1351Y729D01*
X1408Y729D02*
X1445Y729D01*
X715Y728D02*
X752Y728D01*
X808Y728D02*
X845Y728D01*
X1315Y728D02*
X1351Y728D01*
X1408Y728D02*
X1445Y728D01*
X715Y727D02*
X752Y727D01*
X808Y727D02*
X845Y727D01*
X1315Y727D02*
X1352Y727D01*
X1408Y727D02*
X1445Y727D01*
X715Y726D02*
X752Y726D01*
X808Y726D02*
X845Y726D01*
X1315Y726D02*
X1352Y726D01*
X1408Y726D02*
X1445Y726D01*
X715Y725D02*
X752Y725D01*
X807Y725D02*
X845Y725D01*
X1315Y725D02*
X1352Y725D01*
X1407Y725D02*
X1445Y725D01*
X715Y724D02*
X753Y724D01*
X807Y724D02*
X845Y724D01*
X1315Y724D02*
X1353Y724D01*
X1407Y724D02*
X1445Y724D01*
X715Y723D02*
X753Y723D01*
X806Y723D02*
X845Y723D01*
X1315Y723D02*
X1353Y723D01*
X1406Y723D02*
X1445Y723D01*
X715Y722D02*
X754Y722D01*
X806Y722D02*
X845Y722D01*
X1315Y722D02*
X1354Y722D01*
X1406Y722D02*
X1445Y722D01*
X715Y721D02*
X754Y721D01*
X806Y721D02*
X845Y721D01*
X1315Y721D02*
X1354Y721D01*
X1405Y721D02*
X1445Y721D01*
X715Y720D02*
X755Y720D01*
X805Y720D02*
X845Y720D01*
X1315Y720D02*
X1355Y720D01*
X1405Y720D02*
X1445Y720D01*
X715Y719D02*
X755Y719D01*
X804Y719D02*
X845Y719D01*
X1315Y719D02*
X1355Y719D01*
X1404Y719D02*
X1445Y719D01*
X715Y718D02*
X756Y718D01*
X804Y718D02*
X845Y718D01*
X1315Y718D02*
X1356Y718D01*
X1404Y718D02*
X1445Y718D01*
X715Y717D02*
X757Y717D01*
X803Y717D02*
X845Y717D01*
X1315Y717D02*
X1357Y717D01*
X1403Y717D02*
X1445Y717D01*
X715Y716D02*
X758Y716D01*
X802Y716D02*
X845Y716D01*
X1315Y716D02*
X1358Y716D01*
X1402Y716D02*
X1445Y716D01*
X715Y715D02*
X758Y715D01*
X801Y715D02*
X845Y715D01*
X1315Y715D02*
X1358Y715D01*
X1401Y715D02*
X1445Y715D01*
X715Y714D02*
X759Y714D01*
X800Y714D02*
X845Y714D01*
X1315Y714D02*
X1359Y714D01*
X1400Y714D02*
X1445Y714D01*
X715Y713D02*
X761Y713D01*
X799Y713D02*
X845Y713D01*
X1315Y713D02*
X1360Y713D01*
X1399Y713D02*
X1445Y713D01*
X715Y712D02*
X762Y712D01*
X798Y712D02*
X845Y712D01*
X1315Y712D02*
X1362Y712D01*
X1398Y712D02*
X1445Y712D01*
X715Y711D02*
X763Y711D01*
X797Y711D02*
X845Y711D01*
X1315Y711D02*
X1363Y711D01*
X1397Y711D02*
X1445Y711D01*
X715Y710D02*
X764Y710D01*
X795Y710D02*
X845Y710D01*
X1315Y710D02*
X1364Y710D01*
X1395Y710D02*
X1445Y710D01*
X715Y709D02*
X766Y709D01*
X793Y709D02*
X845Y709D01*
X1315Y709D02*
X1366Y709D01*
X1393Y709D02*
X1445Y709D01*
X715Y708D02*
X768Y708D01*
X791Y708D02*
X845Y708D01*
X1315Y708D02*
X1368Y708D01*
X1391Y708D02*
X1445Y708D01*
X715Y707D02*
X771Y707D01*
X789Y707D02*
X845Y707D01*
X1315Y707D02*
X1371Y707D01*
X1389Y707D02*
X1445Y707D01*
X715Y706D02*
X774Y706D01*
X786Y706D02*
X845Y706D01*
X1315Y706D02*
X1374Y706D01*
X1385Y706D02*
X1445Y706D01*
X715Y662D02*
X773Y662D01*
X787Y662D02*
X845Y662D01*
X1315Y662D02*
X1373Y662D01*
X1387Y662D02*
X1445Y662D01*
X715Y661D02*
X770Y661D01*
X790Y661D02*
X845Y661D01*
X1315Y661D02*
X1369Y661D01*
X1390Y661D02*
X1445Y661D01*
X715Y660D02*
X767Y660D01*
X793Y660D02*
X845Y660D01*
X1315Y660D02*
X1367Y660D01*
X1392Y660D02*
X1445Y660D01*
X715Y659D02*
X765Y659D01*
X794Y659D02*
X845Y659D01*
X1315Y659D02*
X1365Y659D01*
X1394Y659D02*
X1445Y659D01*
X715Y658D02*
X764Y658D01*
X796Y658D02*
X845Y658D01*
X1315Y658D02*
X1364Y658D01*
X1396Y658D02*
X1445Y658D01*
X715Y657D02*
X762Y657D01*
X797Y657D02*
X845Y657D01*
X1315Y657D02*
X1362Y657D01*
X1397Y657D02*
X1445Y657D01*
X715Y656D02*
X761Y656D01*
X799Y656D02*
X845Y656D01*
X1315Y656D02*
X1361Y656D01*
X1398Y656D02*
X1445Y656D01*
X715Y655D02*
X760Y655D01*
X800Y655D02*
X845Y655D01*
X1315Y655D02*
X1360Y655D01*
X1400Y655D02*
X1445Y655D01*
X715Y654D02*
X759Y654D01*
X801Y654D02*
X845Y654D01*
X1315Y654D02*
X1359Y654D01*
X1401Y654D02*
X1445Y654D01*
X715Y653D02*
X758Y653D01*
X802Y653D02*
X845Y653D01*
X1315Y653D02*
X1358Y653D01*
X1402Y653D02*
X1445Y653D01*
X715Y652D02*
X757Y652D01*
X802Y652D02*
X845Y652D01*
X1315Y652D02*
X1357Y652D01*
X1402Y652D02*
X1445Y652D01*
X715Y651D02*
X756Y651D01*
X803Y651D02*
X845Y651D01*
X1315Y651D02*
X1356Y651D01*
X1403Y651D02*
X1445Y651D01*
X715Y650D02*
X756Y650D01*
X804Y650D02*
X845Y650D01*
X1315Y650D02*
X1356Y650D01*
X1404Y650D02*
X1445Y650D01*
X715Y649D02*
X755Y649D01*
X805Y649D02*
X845Y649D01*
X1315Y649D02*
X1355Y649D01*
X1405Y649D02*
X1445Y649D01*
X715Y648D02*
X754Y648D01*
X805Y648D02*
X845Y648D01*
X1315Y648D02*
X1354Y648D01*
X1405Y648D02*
X1445Y648D01*
X715Y647D02*
X754Y647D01*
X806Y647D02*
X845Y647D01*
X1315Y647D02*
X1354Y647D01*
X1406Y647D02*
X1445Y647D01*
X715Y646D02*
X753Y646D01*
X806Y646D02*
X845Y646D01*
X1315Y646D02*
X1353Y646D01*
X1406Y646D02*
X1445Y646D01*
X715Y645D02*
X753Y645D01*
X807Y645D02*
X845Y645D01*
X1315Y645D02*
X1353Y645D01*
X1407Y645D02*
X1445Y645D01*
X715Y644D02*
X753Y644D01*
X807Y644D02*
X845Y644D01*
X1315Y644D02*
X1353Y644D01*
X1407Y644D02*
X1445Y644D01*
X715Y643D02*
X752Y643D01*
X807Y643D02*
X845Y643D01*
X1315Y643D02*
X1352Y643D01*
X1407Y643D02*
X1445Y643D01*
X715Y642D02*
X752Y642D01*
X808Y642D02*
X845Y642D01*
X1315Y642D02*
X1352Y642D01*
X1408Y642D02*
X1445Y642D01*
X715Y641D02*
X752Y641D01*
X808Y641D02*
X845Y641D01*
X1315Y641D02*
X1352Y641D01*
X1408Y641D02*
X1445Y641D01*
X715Y640D02*
X751Y640D01*
X808Y640D02*
X845Y640D01*
X1315Y640D02*
X1351Y640D01*
X1408Y640D02*
X1445Y640D01*
X715Y639D02*
X751Y639D01*
X808Y639D02*
X845Y639D01*
X1315Y639D02*
X1351Y639D01*
X1408Y639D02*
X1445Y639D01*
X715Y638D02*
X751Y638D01*
X809Y638D02*
X845Y638D01*
X1315Y638D02*
X1351Y638D01*
X1408Y638D02*
X1445Y638D01*
X715Y637D02*
X751Y637D01*
X809Y637D02*
X845Y637D01*
X1315Y637D02*
X1351Y637D01*
X1409Y637D02*
X1445Y637D01*
X715Y636D02*
X751Y636D01*
X809Y636D02*
X845Y636D01*
X1315Y636D02*
X1351Y636D01*
X1409Y636D02*
X1445Y636D01*
X715Y635D02*
X751Y635D01*
X809Y635D02*
X845Y635D01*
X1315Y635D02*
X1351Y635D01*
X1409Y635D02*
X1445Y635D01*
X715Y634D02*
X751Y634D01*
X809Y634D02*
X845Y634D01*
X1315Y634D02*
X1351Y634D01*
X1409Y634D02*
X1445Y634D01*
X715Y633D02*
X751Y633D01*
X809Y633D02*
X845Y633D01*
X1315Y633D02*
X1351Y633D01*
X1409Y633D02*
X1445Y633D01*
X715Y632D02*
X751Y632D01*
X809Y632D02*
X845Y632D01*
X1315Y632D02*
X1351Y632D01*
X1409Y632D02*
X1445Y632D01*
X715Y631D02*
X751Y631D01*
X809Y631D02*
X845Y631D01*
X1315Y631D02*
X1351Y631D01*
X1409Y631D02*
X1445Y631D01*
X715Y630D02*
X751Y630D01*
X808Y630D02*
X845Y630D01*
X1315Y630D02*
X1351Y630D01*
X1408Y630D02*
X1445Y630D01*
X715Y629D02*
X751Y629D01*
X808Y629D02*
X845Y629D01*
X1315Y629D02*
X1351Y629D01*
X1408Y629D02*
X1445Y629D01*
X715Y628D02*
X752Y628D01*
X808Y628D02*
X845Y628D01*
X1315Y628D02*
X1351Y628D01*
X1408Y628D02*
X1445Y628D01*
X715Y627D02*
X752Y627D01*
X808Y627D02*
X845Y627D01*
X1315Y627D02*
X1352Y627D01*
X1408Y627D02*
X1445Y627D01*
X715Y626D02*
X752Y626D01*
X808Y626D02*
X845Y626D01*
X1315Y626D02*
X1352Y626D01*
X1408Y626D02*
X1445Y626D01*
X715Y625D02*
X752Y625D01*
X807Y625D02*
X845Y625D01*
X1315Y625D02*
X1352Y625D01*
X1407Y625D02*
X1445Y625D01*
X715Y624D02*
X753Y624D01*
X807Y624D02*
X845Y624D01*
X1315Y624D02*
X1353Y624D01*
X1407Y624D02*
X1445Y624D01*
X715Y623D02*
X753Y623D01*
X806Y623D02*
X845Y623D01*
X1315Y623D02*
X1353Y623D01*
X1406Y623D02*
X1445Y623D01*
X715Y622D02*
X754Y622D01*
X806Y622D02*
X845Y622D01*
X1315Y622D02*
X1354Y622D01*
X1406Y622D02*
X1445Y622D01*
X715Y621D02*
X754Y621D01*
X806Y621D02*
X845Y621D01*
X1315Y621D02*
X1354Y621D01*
X1405Y621D02*
X1445Y621D01*
X715Y620D02*
X755Y620D01*
X805Y620D02*
X845Y620D01*
X1315Y620D02*
X1355Y620D01*
X1405Y620D02*
X1445Y620D01*
X715Y619D02*
X755Y619D01*
X804Y619D02*
X845Y619D01*
X1315Y619D02*
X1355Y619D01*
X1404Y619D02*
X1445Y619D01*
X715Y618D02*
X756Y618D01*
X804Y618D02*
X845Y618D01*
X1315Y618D02*
X1356Y618D01*
X1404Y618D02*
X1445Y618D01*
X715Y617D02*
X757Y617D01*
X803Y617D02*
X845Y617D01*
X1315Y617D02*
X1357Y617D01*
X1403Y617D02*
X1445Y617D01*
X715Y616D02*
X758Y616D01*
X802Y616D02*
X845Y616D01*
X1315Y616D02*
X1358Y616D01*
X1402Y616D02*
X1445Y616D01*
X715Y615D02*
X758Y615D01*
X801Y615D02*
X845Y615D01*
X1315Y615D02*
X1358Y615D01*
X1401Y615D02*
X1445Y615D01*
X715Y614D02*
X759Y614D01*
X800Y614D02*
X845Y614D01*
X1315Y614D02*
X1359Y614D01*
X1400Y614D02*
X1445Y614D01*
X715Y613D02*
X761Y613D01*
X799Y613D02*
X845Y613D01*
X1315Y613D02*
X1360Y613D01*
X1399Y613D02*
X1445Y613D01*
X715Y612D02*
X762Y612D01*
X798Y612D02*
X845Y612D01*
X1315Y612D02*
X1362Y612D01*
X1398Y612D02*
X1445Y612D01*
X715Y611D02*
X763Y611D01*
X797Y611D02*
X845Y611D01*
X1315Y611D02*
X1363Y611D01*
X1397Y611D02*
X1445Y611D01*
X715Y610D02*
X764Y610D01*
X795Y610D02*
X845Y610D01*
X1315Y610D02*
X1364Y610D01*
X1395Y610D02*
X1445Y610D01*
X715Y609D02*
X766Y609D01*
X793Y609D02*
X845Y609D01*
X1315Y609D02*
X1366Y609D01*
X1393Y609D02*
X1445Y609D01*
X715Y608D02*
X768Y608D01*
X791Y608D02*
X845Y608D01*
X1315Y608D02*
X1368Y608D01*
X1391Y608D02*
X1445Y608D01*
X715Y607D02*
X771Y607D01*
X789Y607D02*
X845Y607D01*
X1315Y607D02*
X1371Y607D01*
X1389Y607D02*
X1445Y607D01*
X715Y606D02*
X774Y606D01*
X785Y606D02*
X845Y606D01*
X1315Y606D02*
X1374Y606D01*
X1385Y606D02*
X1445Y606D01*
X715Y562D02*
X773Y562D01*
X787Y562D02*
X845Y562D01*
X1315Y562D02*
X1373Y562D01*
X1387Y562D02*
X1445Y562D01*
X715Y561D02*
X769Y561D01*
X790Y561D02*
X845Y561D01*
X1315Y561D02*
X1369Y561D01*
X1390Y561D02*
X1445Y561D01*
X715Y560D02*
X767Y560D01*
X793Y560D02*
X845Y560D01*
X1315Y560D02*
X1367Y560D01*
X1392Y560D02*
X1445Y560D01*
X715Y559D02*
X765Y559D01*
X794Y559D02*
X845Y559D01*
X1315Y559D02*
X1365Y559D01*
X1394Y559D02*
X1445Y559D01*
X715Y558D02*
X764Y558D01*
X796Y558D02*
X845Y558D01*
X1315Y558D02*
X1364Y558D01*
X1396Y558D02*
X1445Y558D01*
X715Y557D02*
X762Y557D01*
X797Y557D02*
X845Y557D01*
X1315Y557D02*
X1362Y557D01*
X1397Y557D02*
X1445Y557D01*
X715Y556D02*
X761Y556D01*
X799Y556D02*
X845Y556D01*
X1315Y556D02*
X1361Y556D01*
X1399Y556D02*
X1445Y556D01*
X715Y555D02*
X760Y555D01*
X800Y555D02*
X845Y555D01*
X1315Y555D02*
X1360Y555D01*
X1400Y555D02*
X1445Y555D01*
X715Y554D02*
X759Y554D01*
X801Y554D02*
X845Y554D01*
X1315Y554D02*
X1359Y554D01*
X1401Y554D02*
X1445Y554D01*
X715Y553D02*
X758Y553D01*
X802Y553D02*
X845Y553D01*
X1315Y553D02*
X1358Y553D01*
X1402Y553D02*
X1445Y553D01*
X715Y552D02*
X757Y552D01*
X802Y552D02*
X845Y552D01*
X1315Y552D02*
X1357Y552D01*
X1402Y552D02*
X1445Y552D01*
X715Y551D02*
X756Y551D01*
X803Y551D02*
X845Y551D01*
X1315Y551D02*
X1356Y551D01*
X1403Y551D02*
X1445Y551D01*
X715Y550D02*
X756Y550D01*
X804Y550D02*
X845Y550D01*
X1315Y550D02*
X1356Y550D01*
X1404Y550D02*
X1445Y550D01*
X715Y549D02*
X755Y549D01*
X805Y549D02*
X845Y549D01*
X1315Y549D02*
X1355Y549D01*
X1405Y549D02*
X1445Y549D01*
X715Y548D02*
X754Y548D01*
X805Y548D02*
X845Y548D01*
X1315Y548D02*
X1354Y548D01*
X1405Y548D02*
X1445Y548D01*
X715Y547D02*
X754Y547D01*
X806Y547D02*
X845Y547D01*
X1315Y547D02*
X1354Y547D01*
X1406Y547D02*
X1445Y547D01*
X715Y546D02*
X753Y546D01*
X806Y546D02*
X845Y546D01*
X1315Y546D02*
X1353Y546D01*
X1406Y546D02*
X1445Y546D01*
X715Y545D02*
X753Y545D01*
X807Y545D02*
X845Y545D01*
X1315Y545D02*
X1353Y545D01*
X1407Y545D02*
X1445Y545D01*
X715Y544D02*
X753Y544D01*
X807Y544D02*
X845Y544D01*
X1315Y544D02*
X1353Y544D01*
X1407Y544D02*
X1445Y544D01*
X715Y543D02*
X752Y543D01*
X807Y543D02*
X845Y543D01*
X1315Y543D02*
X1352Y543D01*
X1407Y543D02*
X1445Y543D01*
X715Y542D02*
X752Y542D01*
X808Y542D02*
X845Y542D01*
X1315Y542D02*
X1352Y542D01*
X1408Y542D02*
X1445Y542D01*
X715Y541D02*
X752Y541D01*
X808Y541D02*
X845Y541D01*
X1315Y541D02*
X1352Y541D01*
X1408Y541D02*
X1445Y541D01*
X715Y540D02*
X751Y540D01*
X808Y540D02*
X845Y540D01*
X1315Y540D02*
X1351Y540D01*
X1408Y540D02*
X1445Y540D01*
X715Y539D02*
X751Y539D01*
X808Y539D02*
X845Y539D01*
X1315Y539D02*
X1351Y539D01*
X1408Y539D02*
X1445Y539D01*
X715Y538D02*
X751Y538D01*
X809Y538D02*
X845Y538D01*
X1315Y538D02*
X1351Y538D01*
X1408Y538D02*
X1445Y538D01*
X715Y537D02*
X751Y537D01*
X809Y537D02*
X845Y537D01*
X1315Y537D02*
X1351Y537D01*
X1409Y537D02*
X1445Y537D01*
X715Y536D02*
X751Y536D01*
X809Y536D02*
X845Y536D01*
X1315Y536D02*
X1351Y536D01*
X1409Y536D02*
X1445Y536D01*
X715Y535D02*
X751Y535D01*
X809Y535D02*
X845Y535D01*
X1315Y535D02*
X1351Y535D01*
X1409Y535D02*
X1445Y535D01*
X715Y534D02*
X751Y534D01*
X809Y534D02*
X845Y534D01*
X1315Y534D02*
X1351Y534D01*
X1409Y534D02*
X1445Y534D01*
X715Y533D02*
X751Y533D01*
X809Y533D02*
X845Y533D01*
X1315Y533D02*
X1351Y533D01*
X1409Y533D02*
X1445Y533D01*
X715Y532D02*
X751Y532D01*
X809Y532D02*
X845Y532D01*
X1315Y532D02*
X1351Y532D01*
X1409Y532D02*
X1445Y532D01*
X715Y531D02*
X751Y531D01*
X809Y531D02*
X845Y531D01*
X1315Y531D02*
X1351Y531D01*
X1409Y531D02*
X1445Y531D01*
X715Y530D02*
X751Y530D01*
X808Y530D02*
X845Y530D01*
X1315Y530D02*
X1351Y530D01*
X1408Y530D02*
X1445Y530D01*
X715Y529D02*
X751Y529D01*
X808Y529D02*
X845Y529D01*
X1315Y529D02*
X1351Y529D01*
X1408Y529D02*
X1445Y529D01*
X715Y528D02*
X752Y528D01*
X808Y528D02*
X845Y528D01*
X1315Y528D02*
X1351Y528D01*
X1408Y528D02*
X1445Y528D01*
X715Y527D02*
X752Y527D01*
X808Y527D02*
X845Y527D01*
X1315Y527D02*
X1352Y527D01*
X1408Y527D02*
X1445Y527D01*
X715Y526D02*
X752Y526D01*
X808Y526D02*
X845Y526D01*
X1315Y526D02*
X1352Y526D01*
X1408Y526D02*
X1445Y526D01*
X715Y525D02*
X752Y525D01*
X807Y525D02*
X845Y525D01*
X1315Y525D02*
X1352Y525D01*
X1407Y525D02*
X1445Y525D01*
X715Y524D02*
X753Y524D01*
X807Y524D02*
X845Y524D01*
X1315Y524D02*
X1353Y524D01*
X1407Y524D02*
X1445Y524D01*
X715Y523D02*
X753Y523D01*
X806Y523D02*
X845Y523D01*
X1315Y523D02*
X1353Y523D01*
X1406Y523D02*
X1445Y523D01*
X715Y522D02*
X754Y522D01*
X806Y522D02*
X845Y522D01*
X1315Y522D02*
X1354Y522D01*
X1406Y522D02*
X1445Y522D01*
X715Y521D02*
X754Y521D01*
X806Y521D02*
X845Y521D01*
X1315Y521D02*
X1354Y521D01*
X1405Y521D02*
X1445Y521D01*
X715Y520D02*
X755Y520D01*
X805Y520D02*
X845Y520D01*
X1315Y520D02*
X1355Y520D01*
X1405Y520D02*
X1445Y520D01*
X715Y519D02*
X755Y519D01*
X804Y519D02*
X845Y519D01*
X1315Y519D02*
X1355Y519D01*
X1404Y519D02*
X1445Y519D01*
X715Y518D02*
X756Y518D01*
X804Y518D02*
X845Y518D01*
X1315Y518D02*
X1356Y518D01*
X1404Y518D02*
X1445Y518D01*
X715Y517D02*
X757Y517D01*
X803Y517D02*
X845Y517D01*
X1315Y517D02*
X1357Y517D01*
X1403Y517D02*
X1445Y517D01*
X715Y516D02*
X758Y516D01*
X802Y516D02*
X845Y516D01*
X1315Y516D02*
X1358Y516D01*
X1402Y516D02*
X1445Y516D01*
X715Y515D02*
X758Y515D01*
X801Y515D02*
X845Y515D01*
X1315Y515D02*
X1358Y515D01*
X1401Y515D02*
X1445Y515D01*
X715Y514D02*
X759Y514D01*
X800Y514D02*
X845Y514D01*
X1315Y514D02*
X1359Y514D01*
X1400Y514D02*
X1445Y514D01*
X715Y513D02*
X761Y513D01*
X799Y513D02*
X845Y513D01*
X1315Y513D02*
X1360Y513D01*
X1399Y513D02*
X1445Y513D01*
X715Y512D02*
X762Y512D01*
X798Y512D02*
X845Y512D01*
X1315Y512D02*
X1362Y512D01*
X1398Y512D02*
X1445Y512D01*
X715Y511D02*
X763Y511D01*
X797Y511D02*
X845Y511D01*
X1315Y511D02*
X1363Y511D01*
X1397Y511D02*
X1445Y511D01*
X715Y510D02*
X764Y510D01*
X795Y510D02*
X845Y510D01*
X1315Y510D02*
X1364Y510D01*
X1395Y510D02*
X1445Y510D01*
X715Y509D02*
X766Y509D01*
X793Y509D02*
X845Y509D01*
X1315Y509D02*
X1366Y509D01*
X1393Y509D02*
X1445Y509D01*
X715Y508D02*
X768Y508D01*
X791Y508D02*
X845Y508D01*
X1315Y508D02*
X1368Y508D01*
X1391Y508D02*
X1445Y508D01*
X715Y507D02*
X771Y507D01*
X789Y507D02*
X845Y507D01*
X1315Y507D02*
X1371Y507D01*
X1388Y507D02*
X1445Y507D01*
X715Y506D02*
X774Y506D01*
X786Y506D02*
X845Y506D01*
X1315Y506D02*
X1374Y506D01*
X1385Y506D02*
X1445Y506D01*
X715Y462D02*
X773Y462D01*
X787Y462D02*
X845Y462D01*
X1315Y462D02*
X1373Y462D01*
X1387Y462D02*
X1445Y462D01*
X715Y461D02*
X769Y461D01*
X790Y461D02*
X845Y461D01*
X1315Y461D02*
X1369Y461D01*
X1390Y461D02*
X1445Y461D01*
X715Y460D02*
X767Y460D01*
X793Y460D02*
X845Y460D01*
X1315Y460D02*
X1367Y460D01*
X1392Y460D02*
X1445Y460D01*
X715Y459D02*
X765Y459D01*
X794Y459D02*
X845Y459D01*
X1315Y459D02*
X1365Y459D01*
X1394Y459D02*
X1445Y459D01*
X715Y458D02*
X764Y458D01*
X796Y458D02*
X845Y458D01*
X1315Y458D02*
X1363Y458D01*
X1396Y458D02*
X1445Y458D01*
X715Y457D02*
X762Y457D01*
X797Y457D02*
X845Y457D01*
X1315Y457D02*
X1362Y457D01*
X1397Y457D02*
X1445Y457D01*
X715Y456D02*
X761Y456D01*
X799Y456D02*
X845Y456D01*
X1315Y456D02*
X1361Y456D01*
X1399Y456D02*
X1445Y456D01*
X715Y455D02*
X760Y455D01*
X800Y455D02*
X845Y455D01*
X1315Y455D02*
X1360Y455D01*
X1400Y455D02*
X1445Y455D01*
X715Y454D02*
X759Y454D01*
X801Y454D02*
X845Y454D01*
X1315Y454D02*
X1359Y454D01*
X1401Y454D02*
X1445Y454D01*
X715Y453D02*
X758Y453D01*
X802Y453D02*
X845Y453D01*
X1315Y453D02*
X1358Y453D01*
X1402Y453D02*
X1445Y453D01*
X715Y452D02*
X757Y452D01*
X802Y452D02*
X845Y452D01*
X1315Y452D02*
X1357Y452D01*
X1402Y452D02*
X1445Y452D01*
X715Y451D02*
X756Y451D01*
X803Y451D02*
X845Y451D01*
X1315Y451D02*
X1356Y451D01*
X1403Y451D02*
X1445Y451D01*
X715Y450D02*
X756Y450D01*
X804Y450D02*
X845Y450D01*
X1315Y450D02*
X1356Y450D01*
X1404Y450D02*
X1445Y450D01*
X715Y449D02*
X755Y449D01*
X805Y449D02*
X845Y449D01*
X1315Y449D02*
X1355Y449D01*
X1405Y449D02*
X1445Y449D01*
X715Y448D02*
X754Y448D01*
X805Y448D02*
X845Y448D01*
X1315Y448D02*
X1354Y448D01*
X1405Y448D02*
X1445Y448D01*
X715Y447D02*
X754Y447D01*
X806Y447D02*
X845Y447D01*
X1315Y447D02*
X1354Y447D01*
X1406Y447D02*
X1445Y447D01*
X715Y446D02*
X753Y446D01*
X806Y446D02*
X845Y446D01*
X1315Y446D02*
X1353Y446D01*
X1406Y446D02*
X1445Y446D01*
X715Y445D02*
X753Y445D01*
X807Y445D02*
X845Y445D01*
X1315Y445D02*
X1353Y445D01*
X1407Y445D02*
X1445Y445D01*
X715Y444D02*
X753Y444D01*
X807Y444D02*
X845Y444D01*
X1315Y444D02*
X1352Y444D01*
X1407Y444D02*
X1445Y444D01*
X715Y443D02*
X752Y443D01*
X807Y443D02*
X845Y443D01*
X1315Y443D02*
X1352Y443D01*
X1407Y443D02*
X1445Y443D01*
X715Y442D02*
X752Y442D01*
X808Y442D02*
X845Y442D01*
X1315Y442D02*
X1352Y442D01*
X1408Y442D02*
X1445Y442D01*
X715Y441D02*
X752Y441D01*
X808Y441D02*
X845Y441D01*
X1315Y441D02*
X1352Y441D01*
X1408Y441D02*
X1445Y441D01*
X715Y440D02*
X751Y440D01*
X808Y440D02*
X845Y440D01*
X1315Y440D02*
X1351Y440D01*
X1408Y440D02*
X1445Y440D01*
X715Y439D02*
X751Y439D01*
X808Y439D02*
X845Y439D01*
X1315Y439D02*
X1351Y439D01*
X1408Y439D02*
X1445Y439D01*
X715Y438D02*
X751Y438D01*
X809Y438D02*
X845Y438D01*
X1315Y438D02*
X1351Y438D01*
X1408Y438D02*
X1445Y438D01*
X715Y437D02*
X751Y437D01*
X809Y437D02*
X845Y437D01*
X1315Y437D02*
X1351Y437D01*
X1409Y437D02*
X1445Y437D01*
X715Y436D02*
X751Y436D01*
X809Y436D02*
X845Y436D01*
X1315Y436D02*
X1351Y436D01*
X1409Y436D02*
X1445Y436D01*
X715Y435D02*
X751Y435D01*
X809Y435D02*
X845Y435D01*
X1315Y435D02*
X1351Y435D01*
X1409Y435D02*
X1445Y435D01*
X715Y434D02*
X751Y434D01*
X809Y434D02*
X845Y434D01*
X1315Y434D02*
X1351Y434D01*
X1409Y434D02*
X1445Y434D01*
X715Y433D02*
X751Y433D01*
X809Y433D02*
X845Y433D01*
X1315Y433D02*
X1351Y433D01*
X1409Y433D02*
X1445Y433D01*
X715Y432D02*
X751Y432D01*
X809Y432D02*
X845Y432D01*
X1315Y432D02*
X1351Y432D01*
X1409Y432D02*
X1445Y432D01*
X715Y431D02*
X751Y431D01*
X809Y431D02*
X845Y431D01*
X1315Y431D02*
X1351Y431D01*
X1409Y431D02*
X1445Y431D01*
X715Y430D02*
X751Y430D01*
X808Y430D02*
X845Y430D01*
X1315Y430D02*
X1351Y430D01*
X1408Y430D02*
X1445Y430D01*
X715Y429D02*
X751Y429D01*
X808Y429D02*
X845Y429D01*
X1315Y429D02*
X1351Y429D01*
X1408Y429D02*
X1445Y429D01*
X715Y428D02*
X752Y428D01*
X808Y428D02*
X845Y428D01*
X1315Y428D02*
X1351Y428D01*
X1408Y428D02*
X1445Y428D01*
X715Y427D02*
X752Y427D01*
X808Y427D02*
X845Y427D01*
X1315Y427D02*
X1352Y427D01*
X1408Y427D02*
X1445Y427D01*
X715Y426D02*
X752Y426D01*
X808Y426D02*
X845Y426D01*
X1315Y426D02*
X1352Y426D01*
X1408Y426D02*
X1445Y426D01*
X715Y425D02*
X752Y425D01*
X807Y425D02*
X845Y425D01*
X1315Y425D02*
X1352Y425D01*
X1407Y425D02*
X1445Y425D01*
X715Y424D02*
X753Y424D01*
X807Y424D02*
X845Y424D01*
X1315Y424D02*
X1353Y424D01*
X1407Y424D02*
X1445Y424D01*
X715Y423D02*
X753Y423D01*
X806Y423D02*
X845Y423D01*
X1315Y423D02*
X1353Y423D01*
X1406Y423D02*
X1445Y423D01*
X715Y422D02*
X754Y422D01*
X806Y422D02*
X845Y422D01*
X1315Y422D02*
X1354Y422D01*
X1406Y422D02*
X1445Y422D01*
X715Y421D02*
X754Y421D01*
X806Y421D02*
X845Y421D01*
X1315Y421D02*
X1354Y421D01*
X1405Y421D02*
X1445Y421D01*
X715Y420D02*
X755Y420D01*
X805Y420D02*
X845Y420D01*
X1315Y420D02*
X1355Y420D01*
X1405Y420D02*
X1445Y420D01*
X715Y419D02*
X755Y419D01*
X804Y419D02*
X845Y419D01*
X1315Y419D02*
X1355Y419D01*
X1404Y419D02*
X1445Y419D01*
X715Y418D02*
X756Y418D01*
X804Y418D02*
X845Y418D01*
X1315Y418D02*
X1356Y418D01*
X1404Y418D02*
X1445Y418D01*
X715Y417D02*
X757Y417D01*
X803Y417D02*
X845Y417D01*
X1315Y417D02*
X1357Y417D01*
X1403Y417D02*
X1445Y417D01*
X715Y416D02*
X758Y416D01*
X802Y416D02*
X845Y416D01*
X1315Y416D02*
X1358Y416D01*
X1402Y416D02*
X1445Y416D01*
X715Y415D02*
X758Y415D01*
X801Y415D02*
X845Y415D01*
X1315Y415D02*
X1358Y415D01*
X1401Y415D02*
X1445Y415D01*
X715Y414D02*
X759Y414D01*
X800Y414D02*
X845Y414D01*
X1315Y414D02*
X1359Y414D01*
X1400Y414D02*
X1445Y414D01*
X715Y413D02*
X761Y413D01*
X799Y413D02*
X845Y413D01*
X1315Y413D02*
X1360Y413D01*
X1399Y413D02*
X1445Y413D01*
X715Y412D02*
X762Y412D01*
X798Y412D02*
X845Y412D01*
X1315Y412D02*
X1362Y412D01*
X1398Y412D02*
X1445Y412D01*
X715Y411D02*
X763Y411D01*
X797Y411D02*
X845Y411D01*
X1315Y411D02*
X1363Y411D01*
X1397Y411D02*
X1445Y411D01*
X715Y410D02*
X764Y410D01*
X795Y410D02*
X845Y410D01*
X1315Y410D02*
X1364Y410D01*
X1395Y410D02*
X1445Y410D01*
X715Y409D02*
X766Y409D01*
X793Y409D02*
X845Y409D01*
X1315Y409D02*
X1366Y409D01*
X1393Y409D02*
X1445Y409D01*
X715Y408D02*
X768Y408D01*
X791Y408D02*
X845Y408D01*
X1315Y408D02*
X1368Y408D01*
X1391Y408D02*
X1445Y408D01*
X715Y407D02*
X771Y407D01*
X789Y407D02*
X845Y407D01*
X1315Y407D02*
X1371Y407D01*
X1388Y407D02*
X1445Y407D01*
X715Y406D02*
X774Y406D01*
X785Y406D02*
X845Y406D01*
X1315Y406D02*
X1374Y406D01*
X1385Y406D02*
X1445Y406D01*
X715Y362D02*
X773Y362D01*
X787Y362D02*
X845Y362D01*
X1315Y362D02*
X1373Y362D01*
X1387Y362D02*
X1445Y362D01*
X715Y361D02*
X769Y361D01*
X790Y361D02*
X845Y361D01*
X1315Y361D02*
X1369Y361D01*
X1390Y361D02*
X1445Y361D01*
X715Y360D02*
X767Y360D01*
X793Y360D02*
X845Y360D01*
X1315Y360D02*
X1367Y360D01*
X1392Y360D02*
X1445Y360D01*
X715Y359D02*
X765Y359D01*
X794Y359D02*
X845Y359D01*
X1315Y359D02*
X1365Y359D01*
X1394Y359D02*
X1445Y359D01*
X715Y358D02*
X764Y358D01*
X796Y358D02*
X845Y358D01*
X1315Y358D02*
X1363Y358D01*
X1396Y358D02*
X1445Y358D01*
X715Y357D02*
X762Y357D01*
X797Y357D02*
X845Y357D01*
X1315Y357D02*
X1362Y357D01*
X1397Y357D02*
X1445Y357D01*
X715Y356D02*
X761Y356D01*
X799Y356D02*
X845Y356D01*
X1315Y356D02*
X1361Y356D01*
X1399Y356D02*
X1445Y356D01*
X715Y355D02*
X760Y355D01*
X800Y355D02*
X845Y355D01*
X1315Y355D02*
X1360Y355D01*
X1400Y355D02*
X1445Y355D01*
X715Y354D02*
X759Y354D01*
X801Y354D02*
X845Y354D01*
X1315Y354D02*
X1359Y354D01*
X1401Y354D02*
X1445Y354D01*
X715Y353D02*
X758Y353D01*
X802Y353D02*
X845Y353D01*
X1315Y353D02*
X1358Y353D01*
X1402Y353D02*
X1445Y353D01*
X715Y352D02*
X757Y352D01*
X802Y352D02*
X845Y352D01*
X1315Y352D02*
X1357Y352D01*
X1402Y352D02*
X1445Y352D01*
X715Y351D02*
X756Y351D01*
X803Y351D02*
X845Y351D01*
X1315Y351D02*
X1356Y351D01*
X1403Y351D02*
X1445Y351D01*
X715Y350D02*
X756Y350D01*
X804Y350D02*
X845Y350D01*
X1315Y350D02*
X1355Y350D01*
X1404Y350D02*
X1445Y350D01*
X715Y349D02*
X755Y349D01*
X805Y349D02*
X845Y349D01*
X1315Y349D02*
X1355Y349D01*
X1405Y349D02*
X1445Y349D01*
X715Y348D02*
X754Y348D01*
X805Y348D02*
X845Y348D01*
X1315Y348D02*
X1354Y348D01*
X1405Y348D02*
X1445Y348D01*
X715Y347D02*
X754Y347D01*
X806Y347D02*
X845Y347D01*
X1315Y347D02*
X1354Y347D01*
X1406Y347D02*
X1445Y347D01*
X715Y346D02*
X753Y346D01*
X806Y346D02*
X845Y346D01*
X1315Y346D02*
X1353Y346D01*
X1406Y346D02*
X1445Y346D01*
X715Y345D02*
X753Y345D01*
X807Y345D02*
X845Y345D01*
X1315Y345D02*
X1353Y345D01*
X1407Y345D02*
X1445Y345D01*
X715Y344D02*
X753Y344D01*
X807Y344D02*
X845Y344D01*
X1315Y344D02*
X1352Y344D01*
X1407Y344D02*
X1445Y344D01*
X715Y343D02*
X752Y343D01*
X807Y343D02*
X845Y343D01*
X1315Y343D02*
X1352Y343D01*
X1407Y343D02*
X1445Y343D01*
X715Y342D02*
X752Y342D01*
X808Y342D02*
X845Y342D01*
X1315Y342D02*
X1352Y342D01*
X1408Y342D02*
X1445Y342D01*
X715Y341D02*
X752Y341D01*
X808Y341D02*
X845Y341D01*
X1315Y341D02*
X1352Y341D01*
X1408Y341D02*
X1445Y341D01*
X715Y340D02*
X751Y340D01*
X808Y340D02*
X845Y340D01*
X1315Y340D02*
X1351Y340D01*
X1408Y340D02*
X1445Y340D01*
X715Y339D02*
X751Y339D01*
X808Y339D02*
X845Y339D01*
X1315Y339D02*
X1351Y339D01*
X1408Y339D02*
X1445Y339D01*
X715Y338D02*
X751Y338D01*
X809Y338D02*
X845Y338D01*
X1315Y338D02*
X1351Y338D01*
X1408Y338D02*
X1445Y338D01*
X715Y337D02*
X751Y337D01*
X809Y337D02*
X845Y337D01*
X1315Y337D02*
X1351Y337D01*
X1409Y337D02*
X1445Y337D01*
X715Y336D02*
X751Y336D01*
X809Y336D02*
X845Y336D01*
X1315Y336D02*
X1351Y336D01*
X1409Y336D02*
X1445Y336D01*
X715Y335D02*
X751Y335D01*
X809Y335D02*
X845Y335D01*
X1315Y335D02*
X1351Y335D01*
X1409Y335D02*
X1445Y335D01*
X715Y334D02*
X751Y334D01*
X809Y334D02*
X845Y334D01*
X1315Y334D02*
X1351Y334D01*
X1409Y334D02*
X1445Y334D01*
X715Y333D02*
X751Y333D01*
X809Y333D02*
X845Y333D01*
X1315Y333D02*
X1351Y333D01*
X1409Y333D02*
X1445Y333D01*
X715Y332D02*
X751Y332D01*
X809Y332D02*
X845Y332D01*
X1315Y332D02*
X1351Y332D01*
X1409Y332D02*
X1445Y332D01*
X715Y331D02*
X751Y331D01*
X809Y331D02*
X845Y331D01*
X1315Y331D02*
X1351Y331D01*
X1409Y331D02*
X1445Y331D01*
X715Y330D02*
X751Y330D01*
X808Y330D02*
X845Y330D01*
X1315Y330D02*
X1351Y330D01*
X1408Y330D02*
X1445Y330D01*
X715Y329D02*
X751Y329D01*
X808Y329D02*
X845Y329D01*
X1315Y329D02*
X1351Y329D01*
X1408Y329D02*
X1445Y329D01*
X715Y328D02*
X752Y328D01*
X808Y328D02*
X845Y328D01*
X1315Y328D02*
X1351Y328D01*
X1408Y328D02*
X1445Y328D01*
X715Y327D02*
X752Y327D01*
X808Y327D02*
X845Y327D01*
X1315Y327D02*
X1352Y327D01*
X1408Y327D02*
X1445Y327D01*
X715Y326D02*
X752Y326D01*
X808Y326D02*
X845Y326D01*
X1315Y326D02*
X1352Y326D01*
X1408Y326D02*
X1445Y326D01*
X715Y325D02*
X752Y325D01*
X807Y325D02*
X845Y325D01*
X1315Y325D02*
X1352Y325D01*
X1407Y325D02*
X1445Y325D01*
X715Y324D02*
X753Y324D01*
X807Y324D02*
X845Y324D01*
X1315Y324D02*
X1353Y324D01*
X1407Y324D02*
X1445Y324D01*
X715Y323D02*
X753Y323D01*
X806Y323D02*
X845Y323D01*
X1315Y323D02*
X1353Y323D01*
X1406Y323D02*
X1445Y323D01*
X715Y322D02*
X754Y322D01*
X806Y322D02*
X845Y322D01*
X1315Y322D02*
X1354Y322D01*
X1406Y322D02*
X1445Y322D01*
X715Y321D02*
X754Y321D01*
X806Y321D02*
X845Y321D01*
X1315Y321D02*
X1354Y321D01*
X1405Y321D02*
X1445Y321D01*
X715Y320D02*
X755Y320D01*
X805Y320D02*
X845Y320D01*
X1315Y320D02*
X1355Y320D01*
X1405Y320D02*
X1445Y320D01*
X715Y319D02*
X755Y319D01*
X804Y319D02*
X845Y319D01*
X1315Y319D02*
X1355Y319D01*
X1404Y319D02*
X1445Y319D01*
X715Y318D02*
X756Y318D01*
X804Y318D02*
X845Y318D01*
X1315Y318D02*
X1356Y318D01*
X1404Y318D02*
X1445Y318D01*
X715Y317D02*
X757Y317D01*
X803Y317D02*
X845Y317D01*
X1315Y317D02*
X1357Y317D01*
X1403Y317D02*
X1445Y317D01*
X715Y316D02*
X758Y316D01*
X802Y316D02*
X845Y316D01*
X1315Y316D02*
X1358Y316D01*
X1402Y316D02*
X1445Y316D01*
X715Y315D02*
X758Y315D01*
X801Y315D02*
X845Y315D01*
X1315Y315D02*
X1358Y315D01*
X1401Y315D02*
X1445Y315D01*
X715Y314D02*
X759Y314D01*
X800Y314D02*
X845Y314D01*
X1315Y314D02*
X1359Y314D01*
X1400Y314D02*
X1445Y314D01*
X715Y313D02*
X761Y313D01*
X799Y313D02*
X845Y313D01*
X1315Y313D02*
X1360Y313D01*
X1399Y313D02*
X1445Y313D01*
X715Y312D02*
X762Y312D01*
X798Y312D02*
X845Y312D01*
X1315Y312D02*
X1362Y312D01*
X1398Y312D02*
X1445Y312D01*
X715Y311D02*
X763Y311D01*
X797Y311D02*
X845Y311D01*
X1315Y311D02*
X1363Y311D01*
X1397Y311D02*
X1445Y311D01*
X715Y310D02*
X764Y310D01*
X795Y310D02*
X845Y310D01*
X1315Y310D02*
X1364Y310D01*
X1395Y310D02*
X1445Y310D01*
X715Y309D02*
X766Y309D01*
X793Y309D02*
X845Y309D01*
X1315Y309D02*
X1366Y309D01*
X1393Y309D02*
X1445Y309D01*
X715Y308D02*
X768Y308D01*
X791Y308D02*
X845Y308D01*
X1315Y308D02*
X1368Y308D01*
X1391Y308D02*
X1445Y308D01*
X715Y307D02*
X771Y307D01*
X788Y307D02*
X845Y307D01*
X1315Y307D02*
X1371Y307D01*
X1388Y307D02*
X1445Y307D01*
X715Y306D02*
X774Y306D01*
X786Y306D02*
X845Y306D01*
X1315Y306D02*
X1374Y306D01*
X1385Y306D02*
X1445Y306D01*
X715Y262D02*
X773Y262D01*
X787Y262D02*
X845Y262D01*
X1315Y262D02*
X1373Y262D01*
X1387Y262D02*
X1445Y262D01*
X715Y261D02*
X769Y261D01*
X790Y261D02*
X845Y261D01*
X1315Y261D02*
X1369Y261D01*
X1390Y261D02*
X1445Y261D01*
X715Y260D02*
X767Y260D01*
X793Y260D02*
X845Y260D01*
X1315Y260D02*
X1367Y260D01*
X1393Y260D02*
X1445Y260D01*
X715Y259D02*
X765Y259D01*
X794Y259D02*
X845Y259D01*
X1315Y259D02*
X1365Y259D01*
X1394Y259D02*
X1445Y259D01*
X715Y258D02*
X764Y258D01*
X796Y258D02*
X845Y258D01*
X1315Y258D02*
X1363Y258D01*
X1396Y258D02*
X1445Y258D01*
X715Y257D02*
X762Y257D01*
X797Y257D02*
X845Y257D01*
X1315Y257D02*
X1362Y257D01*
X1397Y257D02*
X1445Y257D01*
X715Y256D02*
X761Y256D01*
X799Y256D02*
X845Y256D01*
X1315Y256D02*
X1361Y256D01*
X1399Y256D02*
X1445Y256D01*
X715Y255D02*
X760Y255D01*
X800Y255D02*
X845Y255D01*
X1315Y255D02*
X1360Y255D01*
X1400Y255D02*
X1445Y255D01*
X715Y254D02*
X759Y254D01*
X801Y254D02*
X845Y254D01*
X1315Y254D02*
X1359Y254D01*
X1401Y254D02*
X1445Y254D01*
X715Y253D02*
X758Y253D01*
X802Y253D02*
X845Y253D01*
X1315Y253D02*
X1358Y253D01*
X1402Y253D02*
X1445Y253D01*
X715Y252D02*
X757Y252D01*
X802Y252D02*
X845Y252D01*
X1315Y252D02*
X1357Y252D01*
X1402Y252D02*
X1445Y252D01*
X715Y251D02*
X756Y251D01*
X803Y251D02*
X845Y251D01*
X1315Y251D02*
X1356Y251D01*
X1403Y251D02*
X1445Y251D01*
X715Y250D02*
X756Y250D01*
X804Y250D02*
X845Y250D01*
X1315Y250D02*
X1355Y250D01*
X1404Y250D02*
X1445Y250D01*
X715Y249D02*
X755Y249D01*
X805Y249D02*
X845Y249D01*
X1315Y249D02*
X1355Y249D01*
X1405Y249D02*
X1445Y249D01*
X715Y248D02*
X754Y248D01*
X805Y248D02*
X845Y248D01*
X1315Y248D02*
X1354Y248D01*
X1405Y248D02*
X1445Y248D01*
X715Y247D02*
X754Y247D01*
X806Y247D02*
X845Y247D01*
X1315Y247D02*
X1354Y247D01*
X1406Y247D02*
X1445Y247D01*
X715Y246D02*
X753Y246D01*
X806Y246D02*
X845Y246D01*
X1315Y246D02*
X1353Y246D01*
X1406Y246D02*
X1445Y246D01*
X715Y245D02*
X753Y245D01*
X807Y245D02*
X845Y245D01*
X1315Y245D02*
X1353Y245D01*
X1407Y245D02*
X1445Y245D01*
X715Y244D02*
X753Y244D01*
X807Y244D02*
X845Y244D01*
X1315Y244D02*
X1352Y244D01*
X1407Y244D02*
X1445Y244D01*
X715Y243D02*
X752Y243D01*
X807Y243D02*
X845Y243D01*
X1315Y243D02*
X1352Y243D01*
X1407Y243D02*
X1445Y243D01*
X715Y242D02*
X752Y242D01*
X808Y242D02*
X845Y242D01*
X1315Y242D02*
X1352Y242D01*
X1408Y242D02*
X1445Y242D01*
X715Y241D02*
X752Y241D01*
X808Y241D02*
X845Y241D01*
X1315Y241D02*
X1352Y241D01*
X1408Y241D02*
X1445Y241D01*
X715Y240D02*
X751Y240D01*
X808Y240D02*
X845Y240D01*
X1315Y240D02*
X1351Y240D01*
X1408Y240D02*
X1445Y240D01*
X715Y239D02*
X751Y239D01*
X808Y239D02*
X845Y239D01*
X1315Y239D02*
X1351Y239D01*
X1408Y239D02*
X1445Y239D01*
X715Y238D02*
X751Y238D01*
X809Y238D02*
X845Y238D01*
X1315Y238D02*
X1351Y238D01*
X1408Y238D02*
X1445Y238D01*
X715Y237D02*
X751Y237D01*
X809Y237D02*
X845Y237D01*
X1315Y237D02*
X1351Y237D01*
X1409Y237D02*
X1445Y237D01*
X715Y236D02*
X751Y236D01*
X809Y236D02*
X845Y236D01*
X1315Y236D02*
X1351Y236D01*
X1409Y236D02*
X1445Y236D01*
X715Y235D02*
X751Y235D01*
X809Y235D02*
X845Y235D01*
X1315Y235D02*
X1351Y235D01*
X1409Y235D02*
X1445Y235D01*
X715Y234D02*
X751Y234D01*
X809Y234D02*
X845Y234D01*
X1315Y234D02*
X1351Y234D01*
X1409Y234D02*
X1445Y234D01*
X715Y233D02*
X751Y233D01*
X809Y233D02*
X845Y233D01*
X1315Y233D02*
X1351Y233D01*
X1409Y233D02*
X1445Y233D01*
X715Y232D02*
X751Y232D01*
X809Y232D02*
X845Y232D01*
X1315Y232D02*
X1351Y232D01*
X1409Y232D02*
X1445Y232D01*
X715Y231D02*
X751Y231D01*
X809Y231D02*
X845Y231D01*
X1315Y231D02*
X1351Y231D01*
X1409Y231D02*
X1445Y231D01*
X715Y230D02*
X751Y230D01*
X808Y230D02*
X845Y230D01*
X1315Y230D02*
X1351Y230D01*
X1408Y230D02*
X1445Y230D01*
X715Y229D02*
X751Y229D01*
X808Y229D02*
X845Y229D01*
X1315Y229D02*
X1351Y229D01*
X1408Y229D02*
X1445Y229D01*
X715Y228D02*
X752Y228D01*
X808Y228D02*
X845Y228D01*
X1315Y228D02*
X1351Y228D01*
X1408Y228D02*
X1445Y228D01*
X715Y227D02*
X752Y227D01*
X808Y227D02*
X845Y227D01*
X1315Y227D02*
X1352Y227D01*
X1408Y227D02*
X1445Y227D01*
X715Y226D02*
X752Y226D01*
X808Y226D02*
X845Y226D01*
X1315Y226D02*
X1352Y226D01*
X1408Y226D02*
X1445Y226D01*
X715Y225D02*
X752Y225D01*
X807Y225D02*
X845Y225D01*
X1315Y225D02*
X1352Y225D01*
X1407Y225D02*
X1445Y225D01*
X715Y224D02*
X753Y224D01*
X807Y224D02*
X845Y224D01*
X1315Y224D02*
X1353Y224D01*
X1407Y224D02*
X1445Y224D01*
X715Y223D02*
X753Y223D01*
X806Y223D02*
X845Y223D01*
X1315Y223D02*
X1353Y223D01*
X1406Y223D02*
X1445Y223D01*
X715Y222D02*
X754Y222D01*
X806Y222D02*
X845Y222D01*
X1315Y222D02*
X1354Y222D01*
X1406Y222D02*
X1445Y222D01*
X715Y221D02*
X754Y221D01*
X806Y221D02*
X845Y221D01*
X1315Y221D02*
X1354Y221D01*
X1405Y221D02*
X1445Y221D01*
X715Y220D02*
X755Y220D01*
X805Y220D02*
X845Y220D01*
X1315Y220D02*
X1355Y220D01*
X1405Y220D02*
X1445Y220D01*
X715Y219D02*
X755Y219D01*
X804Y219D02*
X845Y219D01*
X1315Y219D02*
X1355Y219D01*
X1404Y219D02*
X1445Y219D01*
X715Y218D02*
X756Y218D01*
X804Y218D02*
X845Y218D01*
X1315Y218D02*
X1356Y218D01*
X1404Y218D02*
X1445Y218D01*
X715Y217D02*
X757Y217D01*
X803Y217D02*
X845Y217D01*
X1315Y217D02*
X1357Y217D01*
X1403Y217D02*
X1445Y217D01*
X715Y216D02*
X758Y216D01*
X802Y216D02*
X845Y216D01*
X1315Y216D02*
X1358Y216D01*
X1402Y216D02*
X1445Y216D01*
X715Y215D02*
X758Y215D01*
X801Y215D02*
X845Y215D01*
X1315Y215D02*
X1358Y215D01*
X1401Y215D02*
X1445Y215D01*
X715Y214D02*
X759Y214D01*
X800Y214D02*
X845Y214D01*
X1315Y214D02*
X1359Y214D01*
X1400Y214D02*
X1445Y214D01*
X715Y213D02*
X761Y213D01*
X799Y213D02*
X845Y213D01*
X1315Y213D02*
X1361Y213D01*
X1399Y213D02*
X1445Y213D01*
X715Y212D02*
X762Y212D01*
X798Y212D02*
X845Y212D01*
X1315Y212D02*
X1362Y212D01*
X1398Y212D02*
X1445Y212D01*
X715Y211D02*
X763Y211D01*
X797Y211D02*
X845Y211D01*
X1315Y211D02*
X1363Y211D01*
X1397Y211D02*
X1445Y211D01*
X715Y210D02*
X765Y210D01*
X795Y210D02*
X845Y210D01*
X1315Y210D02*
X1364Y210D01*
X1395Y210D02*
X1445Y210D01*
X715Y209D02*
X766Y209D01*
X793Y209D02*
X845Y209D01*
X1315Y209D02*
X1366Y209D01*
X1393Y209D02*
X1445Y209D01*
X715Y208D02*
X768Y208D01*
X791Y208D02*
X845Y208D01*
X1315Y208D02*
X1368Y208D01*
X1391Y208D02*
X1445Y208D01*
X715Y207D02*
X771Y207D01*
X788Y207D02*
X845Y207D01*
X1315Y207D02*
X1371Y207D01*
X1388Y207D02*
X1445Y207D01*
X715Y206D02*
X774Y206D01*
X785Y206D02*
X845Y206D01*
X1315Y206D02*
X1374Y206D01*
X1385Y206D02*
X1445Y206D01*
X715Y162D02*
X773Y162D01*
X787Y162D02*
X845Y162D01*
X1315Y162D02*
X1373Y162D01*
X1387Y162D02*
X1445Y162D01*
X715Y161D02*
X769Y161D01*
X790Y161D02*
X845Y161D01*
X1315Y161D02*
X1369Y161D01*
X1390Y161D02*
X1445Y161D01*
X715Y160D02*
X767Y160D01*
X793Y160D02*
X845Y160D01*
X1315Y160D02*
X1367Y160D01*
X1393Y160D02*
X1445Y160D01*
X715Y159D02*
X765Y159D01*
X795Y159D02*
X845Y159D01*
X1315Y159D02*
X1365Y159D01*
X1394Y159D02*
X1445Y159D01*
X715Y158D02*
X764Y158D01*
X796Y158D02*
X845Y158D01*
X1315Y158D02*
X1363Y158D01*
X1396Y158D02*
X1445Y158D01*
X715Y157D02*
X762Y157D01*
X797Y157D02*
X845Y157D01*
X1315Y157D02*
X1362Y157D01*
X1397Y157D02*
X1445Y157D01*
X715Y156D02*
X761Y156D01*
X799Y156D02*
X845Y156D01*
X1315Y156D02*
X1361Y156D01*
X1399Y156D02*
X1445Y156D01*
X715Y155D02*
X760Y155D01*
X800Y155D02*
X845Y155D01*
X1315Y155D02*
X1360Y155D01*
X1400Y155D02*
X1445Y155D01*
X715Y154D02*
X759Y154D01*
X801Y154D02*
X845Y154D01*
X1315Y154D02*
X1359Y154D01*
X1401Y154D02*
X1445Y154D01*
X715Y153D02*
X758Y153D01*
X802Y153D02*
X845Y153D01*
X1315Y153D02*
X1358Y153D01*
X1402Y153D02*
X1445Y153D01*
X715Y152D02*
X757Y152D01*
X802Y152D02*
X845Y152D01*
X1315Y152D02*
X1357Y152D01*
X1402Y152D02*
X1445Y152D01*
X715Y151D02*
X756Y151D01*
X803Y151D02*
X845Y151D01*
X1315Y151D02*
X1356Y151D01*
X1403Y151D02*
X1445Y151D01*
X715Y150D02*
X756Y150D01*
X804Y150D02*
X845Y150D01*
X1315Y150D02*
X1355Y150D01*
X1404Y150D02*
X1445Y150D01*
X715Y149D02*
X755Y149D01*
X805Y149D02*
X845Y149D01*
X1315Y149D02*
X1355Y149D01*
X1405Y149D02*
X1445Y149D01*
X715Y148D02*
X754Y148D01*
X805Y148D02*
X845Y148D01*
X1315Y148D02*
X1354Y148D01*
X1405Y148D02*
X1445Y148D01*
X715Y147D02*
X754Y147D01*
X806Y147D02*
X845Y147D01*
X1315Y147D02*
X1354Y147D01*
X1406Y147D02*
X1445Y147D01*
X715Y146D02*
X753Y146D01*
X806Y146D02*
X845Y146D01*
X1315Y146D02*
X1353Y146D01*
X1406Y146D02*
X1445Y146D01*
X715Y145D02*
X753Y145D01*
X807Y145D02*
X845Y145D01*
X1315Y145D02*
X1353Y145D01*
X1407Y145D02*
X1445Y145D01*
X715Y144D02*
X753Y144D01*
X807Y144D02*
X845Y144D01*
X1315Y144D02*
X1352Y144D01*
X1407Y144D02*
X1445Y144D01*
X715Y143D02*
X752Y143D01*
X807Y143D02*
X845Y143D01*
X1315Y143D02*
X1352Y143D01*
X1407Y143D02*
X1445Y143D01*
X715Y142D02*
X752Y142D01*
X808Y142D02*
X845Y142D01*
X1315Y142D02*
X1352Y142D01*
X1408Y142D02*
X1445Y142D01*
X715Y141D02*
X752Y141D01*
X808Y141D02*
X845Y141D01*
X1315Y141D02*
X1352Y141D01*
X1408Y141D02*
X1445Y141D01*
X715Y140D02*
X751Y140D01*
X808Y140D02*
X845Y140D01*
X1315Y140D02*
X1351Y140D01*
X1408Y140D02*
X1445Y140D01*
X715Y139D02*
X751Y139D01*
X808Y139D02*
X845Y139D01*
X1315Y139D02*
X1351Y139D01*
X1408Y139D02*
X1445Y139D01*
X715Y138D02*
X751Y138D01*
X809Y138D02*
X845Y138D01*
X1315Y138D02*
X1351Y138D01*
X1408Y138D02*
X1445Y138D01*
X715Y137D02*
X751Y137D01*
X809Y137D02*
X845Y137D01*
X1315Y137D02*
X1351Y137D01*
X1409Y137D02*
X1445Y137D01*
X715Y136D02*
X751Y136D01*
X809Y136D02*
X845Y136D01*
X1315Y136D02*
X1351Y136D01*
X1409Y136D02*
X1445Y136D01*
X715Y135D02*
X751Y135D01*
X809Y135D02*
X845Y135D01*
X1315Y135D02*
X1351Y135D01*
X1409Y135D02*
X1445Y135D01*
X715Y134D02*
X751Y134D01*
X809Y134D02*
X845Y134D01*
X1315Y134D02*
X1351Y134D01*
X1409Y134D02*
X1445Y134D01*
X715Y133D02*
X751Y133D01*
X809Y133D02*
X845Y133D01*
X1315Y133D02*
X1351Y133D01*
X1409Y133D02*
X1445Y133D01*
X715Y132D02*
X751Y132D01*
X809Y132D02*
X845Y132D01*
X1315Y132D02*
X1351Y132D01*
X1409Y132D02*
X1445Y132D01*
X715Y131D02*
X751Y131D01*
X809Y131D02*
X845Y131D01*
X1315Y131D02*
X1351Y131D01*
X1409Y131D02*
X1445Y131D01*
X715Y130D02*
X751Y130D01*
X808Y130D02*
X845Y130D01*
X1315Y130D02*
X1351Y130D01*
X1408Y130D02*
X1445Y130D01*
X715Y129D02*
X751Y129D01*
X808Y129D02*
X845Y129D01*
X1315Y129D02*
X1351Y129D01*
X1408Y129D02*
X1445Y129D01*
X715Y128D02*
X752Y128D01*
X808Y128D02*
X845Y128D01*
X1315Y128D02*
X1351Y128D01*
X1408Y128D02*
X1445Y128D01*
X715Y127D02*
X752Y127D01*
X808Y127D02*
X845Y127D01*
X1315Y127D02*
X1352Y127D01*
X1408Y127D02*
X1445Y127D01*
X715Y126D02*
X752Y126D01*
X808Y126D02*
X845Y126D01*
X1315Y126D02*
X1352Y126D01*
X1408Y126D02*
X1445Y126D01*
X715Y125D02*
X752Y125D01*
X807Y125D02*
X845Y125D01*
X1315Y125D02*
X1352Y125D01*
X1407Y125D02*
X1445Y125D01*
X715Y124D02*
X753Y124D01*
X807Y124D02*
X845Y124D01*
X1315Y124D02*
X1353Y124D01*
X1407Y124D02*
X1445Y124D01*
X715Y123D02*
X753Y123D01*
X806Y123D02*
X845Y123D01*
X1315Y123D02*
X1353Y123D01*
X1406Y123D02*
X1445Y123D01*
X715Y122D02*
X754Y122D01*
X806Y122D02*
X845Y122D01*
X1315Y122D02*
X1354Y122D01*
X1406Y122D02*
X1445Y122D01*
X715Y121D02*
X754Y121D01*
X806Y121D02*
X845Y121D01*
X1315Y121D02*
X1354Y121D01*
X1405Y121D02*
X1445Y121D01*
X715Y120D02*
X755Y120D01*
X805Y120D02*
X845Y120D01*
X1315Y120D02*
X1355Y120D01*
X1405Y120D02*
X1445Y120D01*
X715Y119D02*
X755Y119D01*
X804Y119D02*
X845Y119D01*
X1315Y119D02*
X1355Y119D01*
X1404Y119D02*
X1445Y119D01*
X715Y118D02*
X756Y118D01*
X804Y118D02*
X845Y118D01*
X1315Y118D02*
X1356Y118D01*
X1404Y118D02*
X1445Y118D01*
X715Y117D02*
X757Y117D01*
X803Y117D02*
X845Y117D01*
X1315Y117D02*
X1357Y117D01*
X1403Y117D02*
X1445Y117D01*
X715Y116D02*
X758Y116D01*
X802Y116D02*
X845Y116D01*
X1315Y116D02*
X1358Y116D01*
X1402Y116D02*
X1445Y116D01*
X715Y115D02*
X758Y115D01*
X801Y115D02*
X845Y115D01*
X1315Y115D02*
X1358Y115D01*
X1401Y115D02*
X1445Y115D01*
X715Y114D02*
X759Y114D01*
X800Y114D02*
X845Y114D01*
X1315Y114D02*
X1359Y114D01*
X1400Y114D02*
X1445Y114D01*
X715Y113D02*
X761Y113D01*
X799Y113D02*
X845Y113D01*
X1315Y113D02*
X1361Y113D01*
X1399Y113D02*
X1445Y113D01*
X715Y112D02*
X762Y112D01*
X798Y112D02*
X845Y112D01*
X1315Y112D02*
X1362Y112D01*
X1398Y112D02*
X1445Y112D01*
X715Y111D02*
X763Y111D01*
X797Y111D02*
X845Y111D01*
X1315Y111D02*
X1363Y111D01*
X1397Y111D02*
X1445Y111D01*
X715Y110D02*
X765Y110D01*
X795Y110D02*
X845Y110D01*
X1315Y110D02*
X1364Y110D01*
X1395Y110D02*
X1445Y110D01*
X715Y109D02*
X766Y109D01*
X793Y109D02*
X845Y109D01*
X1315Y109D02*
X1366Y109D01*
X1393Y109D02*
X1445Y109D01*
X715Y108D02*
X768Y108D01*
X791Y108D02*
X845Y108D01*
X1315Y108D02*
X1368Y108D01*
X1391Y108D02*
X1445Y108D01*
X715Y107D02*
X771Y107D01*
X788Y107D02*
X845Y107D01*
X1315Y107D02*
X1371Y107D01*
X1388Y107D02*
X1445Y107D01*
X715Y106D02*
X774Y106D01*
X786Y106D02*
X845Y106D01*
X1315Y106D02*
X1374Y106D01*
X1385Y106D02*
X1445Y106D01*
D02*
G04 End of Copper1*
M02*