; NON-PLATED HOLES START AT T1
; THROUGH (PLATED) HOLES START AT T100
M48
INCH
T1C0.130000
T100C0.043288
T101C0.040000
T102C0.025000
T103C0.038000
T104C0.015748
T105C0.047244
T106C0.035000
%
T1
X025300Y001394
X006062Y024197
X006026Y001378
T100
X010793Y019338
X014793Y019338
X012793Y019338
X013793Y019338
X011793Y019338
T101
X013793Y003338
X007793Y005338
X013793Y002338
X013793Y007338
X013793Y004338
X007793Y006338
X013793Y008338
X013793Y001338
X013793Y006338
X007793Y004338
X007793Y001338
X007793Y008338
X007793Y003338
X013793Y005338
X007793Y007338
X007793Y002338
T102
X019793Y025338
X019793Y026912
X019793Y024550
X019793Y026124
T103
X024793Y018338
X002793Y025338
X007993Y025338
X025793Y014338
X024793Y021338
X024793Y006338
X024793Y012338
X006993Y020338
X013793Y016338
X024793Y005338
X020793Y013338
X024793Y013338
X024793Y007338
X024793Y020338
X025793Y009338
X020793Y007338
X006993Y018338
X018793Y019338
X024793Y011338
X010993Y024338
X024793Y017338
X024793Y022338
X017793Y019338
X025793Y019338
X020793Y010338
X024793Y015338
X024793Y003338
X024793Y010338
X019793Y019338
X024793Y008338
X020793Y016338
X007993Y023338
X013793Y013338
X002793Y023338
X024793Y016338
X025793Y004338
X025793Y018338
X025793Y021338
X025793Y006338
X018793Y010338
X012793Y016338
X024793Y014338
X019793Y007338
X014793Y016338
X025793Y012338
X025793Y005338
X025793Y013338
X018793Y016338
X017793Y013338
X025793Y007338
X025793Y020338
X017793Y007338
X024793Y009338
X010993Y025338
X019793Y013338
X011793Y013338
X025793Y011338
X019793Y010338
X018793Y007338
X010993Y023338
X025793Y017338
X020793Y019338
X019793Y016338
X011793Y016338
X025793Y022338
X024793Y019338
X007993Y024338
X025793Y015338
X017793Y010338
X012793Y013338
X002793Y024338
X025793Y003338
X006993Y019338
X014793Y013338
X025793Y010338
X025793Y008338
X024793Y004338
X025793Y016338
X017793Y016338
X018793Y013338
T104
X020795Y003348
X015791Y022321
X019785Y005333
X019785Y004333
X021797Y006329
X019799Y006343
X027793Y028338
X020793Y001338
T105
X002682Y018494
X002793Y002338
X002797Y013207
X002797Y009776
X002682Y020462
X002793Y004306
X002797Y015176
X002797Y007807
T106
X025793Y024338
X002234Y029338
X021793Y024338
X021793Y026338
X025793Y025338
X009793Y027338
X025793Y026338
X005793Y027338
X004793Y029338
X002234Y027566
X021793Y025338
X004793Y027566
T00
M30
