G04 MADE WITH FRITZING*
G04 WWW.FRITZING.ORG*
G04 DOUBLE SIDED*
G04 HOLES PLATED*
G04 CONTOUR ON CENTER OF CONTOUR VECTOR*
%ASAXBY*%
%FSLAX23Y23*%
%MOIN*%
%OFA0B0*%
%SFA1.0B1.0*%
%ADD10C,0.049370*%
%ADD11C,0.085000*%
%ADD12C,0.088000*%
%ADD13C,0.140000*%
%ADD14C,0.075000*%
%ADD15C,0.090000*%
%ADD16C,0.083379*%
%ADD17C,0.084000*%
%ADD18R,0.088000X0.088000*%
%ADD19R,0.001000X0.001000*%
%LNMASK1*%
G90*
G70*
G54D10*
X2080Y335D03*
X1980Y634D03*
X2180Y633D03*
X1579Y2232D03*
X2779Y2834D03*
X1979Y533D03*
X1979Y433D03*
X2079Y134D03*
G54D11*
X479Y2757D03*
X223Y2757D03*
X479Y2934D03*
X223Y2934D03*
G54D12*
X799Y2534D03*
X799Y2434D03*
X799Y2334D03*
G54D13*
X606Y2420D03*
X606Y2420D03*
X2530Y139D03*
X2530Y139D03*
X603Y138D03*
X603Y138D03*
G54D14*
X1979Y2455D03*
X1979Y2534D03*
X1979Y2612D03*
X1979Y2691D03*
G54D15*
X280Y978D03*
X280Y781D03*
X280Y1518D03*
X280Y1321D03*
G54D16*
X1479Y1934D03*
X1379Y1934D03*
X1279Y1934D03*
X1179Y1934D03*
X1079Y1934D03*
G54D12*
X699Y2034D03*
X699Y1934D03*
X699Y1834D03*
G54D15*
X279Y431D03*
X279Y234D03*
G54D11*
X979Y2734D03*
X579Y2734D03*
X2579Y2634D03*
X2179Y2634D03*
X2579Y2534D03*
X2179Y2534D03*
X2579Y2434D03*
X2179Y2434D03*
G54D12*
X1099Y2534D03*
X1099Y2434D03*
X1099Y2334D03*
X279Y2534D03*
X279Y2434D03*
X279Y2334D03*
X2079Y734D03*
X1979Y734D03*
X1879Y734D03*
X1779Y734D03*
X1479Y1334D03*
X1379Y1334D03*
X1279Y1334D03*
X1179Y1334D03*
X1479Y1634D03*
X1379Y1634D03*
X1279Y1634D03*
X1179Y1634D03*
X2079Y1034D03*
X1979Y1034D03*
X1879Y1034D03*
X1779Y1034D03*
X2079Y1634D03*
X1979Y1634D03*
X1879Y1634D03*
X1779Y1634D03*
G54D15*
X268Y2046D03*
X268Y1849D03*
G54D12*
X2579Y334D03*
X2579Y434D03*
X2579Y534D03*
X2579Y634D03*
X2579Y734D03*
X2579Y834D03*
X2579Y934D03*
X2579Y1034D03*
X2579Y1134D03*
X2579Y1234D03*
X2579Y1334D03*
X2579Y1434D03*
X2579Y1534D03*
X2579Y1634D03*
X2579Y1734D03*
X2579Y1834D03*
X2579Y1934D03*
X2579Y2034D03*
X2579Y2134D03*
X2579Y2234D03*
X2579Y334D03*
X2579Y434D03*
X2579Y534D03*
X2579Y634D03*
X2579Y734D03*
X2579Y834D03*
X2579Y934D03*
X2579Y1034D03*
X2579Y1134D03*
X2579Y1234D03*
X2579Y1334D03*
X2579Y1434D03*
X2579Y1534D03*
X2579Y1634D03*
X2579Y1734D03*
X2579Y1834D03*
X2579Y1934D03*
X2579Y2034D03*
X2579Y2134D03*
X2579Y2234D03*
X2479Y2234D03*
X2479Y2134D03*
X2479Y2034D03*
X2479Y1934D03*
X2479Y1834D03*
X2479Y1734D03*
X2479Y1634D03*
X2479Y1534D03*
X2479Y1434D03*
X2479Y1334D03*
X2479Y1234D03*
X2479Y1134D03*
X2479Y1034D03*
X2479Y934D03*
X2479Y834D03*
X2479Y734D03*
X2479Y634D03*
X2479Y534D03*
X2479Y434D03*
X2479Y334D03*
X2079Y1934D03*
X1979Y1934D03*
X1879Y1934D03*
X1779Y1934D03*
X2079Y1334D03*
X1979Y1334D03*
X1879Y1334D03*
X1779Y1334D03*
G54D17*
X779Y134D03*
X779Y234D03*
X779Y334D03*
X779Y434D03*
X779Y534D03*
X779Y634D03*
X779Y734D03*
X779Y834D03*
X1379Y834D03*
X1379Y734D03*
X1379Y634D03*
X1379Y534D03*
X1379Y434D03*
X1379Y334D03*
X1379Y234D03*
X1379Y134D03*
G54D18*
X799Y2534D03*
X1099Y2534D03*
X279Y2534D03*
G54D19*
X710Y867D02*
X850Y867D01*
X1310Y867D02*
X1450Y867D01*
X710Y866D02*
X850Y866D01*
X1310Y866D02*
X1450Y866D01*
X710Y865D02*
X850Y865D01*
X1310Y865D02*
X1450Y865D01*
X710Y864D02*
X850Y864D01*
X1310Y864D02*
X1450Y864D01*
X710Y863D02*
X850Y863D01*
X1310Y863D02*
X1450Y863D01*
X710Y862D02*
X850Y862D01*
X1310Y862D02*
X1450Y862D01*
X710Y861D02*
X850Y861D01*
X1310Y861D02*
X1450Y861D01*
X710Y860D02*
X850Y860D01*
X1310Y860D02*
X1450Y860D01*
X710Y859D02*
X850Y859D01*
X1310Y859D02*
X1450Y859D01*
X710Y858D02*
X850Y858D01*
X1310Y858D02*
X1450Y858D01*
X710Y857D02*
X773Y857D01*
X786Y857D02*
X850Y857D01*
X1310Y857D02*
X1373Y857D01*
X1386Y857D02*
X1450Y857D01*
X710Y856D02*
X770Y856D01*
X789Y856D02*
X850Y856D01*
X1310Y856D02*
X1370Y856D01*
X1389Y856D02*
X1450Y856D01*
X710Y855D02*
X768Y855D01*
X791Y855D02*
X850Y855D01*
X1310Y855D02*
X1368Y855D01*
X1391Y855D02*
X1450Y855D01*
X710Y854D02*
X767Y854D01*
X793Y854D02*
X850Y854D01*
X1310Y854D02*
X1366Y854D01*
X1393Y854D02*
X1450Y854D01*
X710Y853D02*
X765Y853D01*
X794Y853D02*
X850Y853D01*
X1310Y853D02*
X1365Y853D01*
X1394Y853D02*
X1450Y853D01*
X710Y852D02*
X764Y852D01*
X796Y852D02*
X850Y852D01*
X1310Y852D02*
X1364Y852D01*
X1396Y852D02*
X1450Y852D01*
X710Y851D02*
X763Y851D01*
X797Y851D02*
X850Y851D01*
X1310Y851D02*
X1363Y851D01*
X1397Y851D02*
X1450Y851D01*
X710Y850D02*
X762Y850D01*
X798Y850D02*
X850Y850D01*
X1310Y850D02*
X1362Y850D01*
X1398Y850D02*
X1450Y850D01*
X710Y849D02*
X761Y849D01*
X799Y849D02*
X850Y849D01*
X1310Y849D02*
X1361Y849D01*
X1398Y849D02*
X1450Y849D01*
X710Y848D02*
X760Y848D01*
X799Y848D02*
X850Y848D01*
X1310Y848D02*
X1360Y848D01*
X1399Y848D02*
X1450Y848D01*
X710Y847D02*
X760Y847D01*
X800Y847D02*
X850Y847D01*
X1310Y847D02*
X1359Y847D01*
X1400Y847D02*
X1450Y847D01*
X710Y846D02*
X759Y846D01*
X801Y846D02*
X850Y846D01*
X1310Y846D02*
X1359Y846D01*
X1401Y846D02*
X1450Y846D01*
X710Y845D02*
X758Y845D01*
X801Y845D02*
X850Y845D01*
X1310Y845D02*
X1358Y845D01*
X1401Y845D02*
X1450Y845D01*
X710Y844D02*
X758Y844D01*
X802Y844D02*
X850Y844D01*
X1310Y844D02*
X1358Y844D01*
X1402Y844D02*
X1450Y844D01*
X710Y843D02*
X757Y843D01*
X802Y843D02*
X850Y843D01*
X1310Y843D02*
X1357Y843D01*
X1402Y843D02*
X1450Y843D01*
X710Y842D02*
X757Y842D01*
X803Y842D02*
X850Y842D01*
X1310Y842D02*
X1357Y842D01*
X1403Y842D02*
X1450Y842D01*
X710Y841D02*
X757Y841D01*
X803Y841D02*
X850Y841D01*
X1310Y841D02*
X1357Y841D01*
X1403Y841D02*
X1450Y841D01*
X710Y840D02*
X756Y840D01*
X803Y840D02*
X850Y840D01*
X1310Y840D02*
X1356Y840D01*
X1403Y840D02*
X1450Y840D01*
X710Y839D02*
X756Y839D01*
X803Y839D02*
X850Y839D01*
X1310Y839D02*
X1356Y839D01*
X1403Y839D02*
X1450Y839D01*
X710Y838D02*
X756Y838D01*
X804Y838D02*
X850Y838D01*
X1310Y838D02*
X1356Y838D01*
X1403Y838D02*
X1450Y838D01*
X710Y837D02*
X756Y837D01*
X804Y837D02*
X850Y837D01*
X1310Y837D02*
X1356Y837D01*
X1404Y837D02*
X1450Y837D01*
X710Y836D02*
X756Y836D01*
X804Y836D02*
X850Y836D01*
X1310Y836D02*
X1356Y836D01*
X1404Y836D02*
X1450Y836D01*
X710Y835D02*
X756Y835D01*
X804Y835D02*
X850Y835D01*
X1310Y835D02*
X1356Y835D01*
X1404Y835D02*
X1450Y835D01*
X710Y834D02*
X756Y834D01*
X804Y834D02*
X850Y834D01*
X1310Y834D02*
X1356Y834D01*
X1404Y834D02*
X1450Y834D01*
X710Y833D02*
X756Y833D01*
X804Y833D02*
X850Y833D01*
X1310Y833D02*
X1356Y833D01*
X1404Y833D02*
X1450Y833D01*
X710Y832D02*
X756Y832D01*
X804Y832D02*
X850Y832D01*
X1310Y832D02*
X1356Y832D01*
X1404Y832D02*
X1450Y832D01*
X710Y831D02*
X756Y831D01*
X804Y831D02*
X850Y831D01*
X1310Y831D02*
X1356Y831D01*
X1404Y831D02*
X1450Y831D01*
X710Y830D02*
X756Y830D01*
X803Y830D02*
X850Y830D01*
X1310Y830D02*
X1356Y830D01*
X1403Y830D02*
X1450Y830D01*
X710Y829D02*
X756Y829D01*
X803Y829D02*
X850Y829D01*
X1310Y829D02*
X1356Y829D01*
X1403Y829D02*
X1450Y829D01*
X710Y828D02*
X757Y828D01*
X803Y828D02*
X850Y828D01*
X1310Y828D02*
X1357Y828D01*
X1403Y828D02*
X1450Y828D01*
X710Y827D02*
X757Y827D01*
X803Y827D02*
X850Y827D01*
X1310Y827D02*
X1357Y827D01*
X1403Y827D02*
X1450Y827D01*
X710Y826D02*
X757Y826D01*
X802Y826D02*
X850Y826D01*
X1310Y826D02*
X1357Y826D01*
X1402Y826D02*
X1450Y826D01*
X710Y825D02*
X758Y825D01*
X802Y825D02*
X850Y825D01*
X1310Y825D02*
X1358Y825D01*
X1402Y825D02*
X1450Y825D01*
X710Y824D02*
X758Y824D01*
X801Y824D02*
X850Y824D01*
X1310Y824D02*
X1358Y824D01*
X1401Y824D02*
X1450Y824D01*
X710Y823D02*
X759Y823D01*
X801Y823D02*
X850Y823D01*
X1310Y823D02*
X1359Y823D01*
X1401Y823D02*
X1450Y823D01*
X710Y822D02*
X759Y822D01*
X800Y822D02*
X850Y822D01*
X1310Y822D02*
X1359Y822D01*
X1400Y822D02*
X1450Y822D01*
X710Y821D02*
X760Y821D01*
X800Y821D02*
X850Y821D01*
X1310Y821D02*
X1360Y821D01*
X1400Y821D02*
X1450Y821D01*
X710Y820D02*
X761Y820D01*
X799Y820D02*
X850Y820D01*
X1310Y820D02*
X1361Y820D01*
X1399Y820D02*
X1450Y820D01*
X710Y819D02*
X762Y819D01*
X798Y819D02*
X850Y819D01*
X1310Y819D02*
X1362Y819D01*
X1398Y819D02*
X1450Y819D01*
X710Y818D02*
X762Y818D01*
X797Y818D02*
X850Y818D01*
X1310Y818D02*
X1362Y818D01*
X1397Y818D02*
X1450Y818D01*
X710Y817D02*
X763Y817D01*
X796Y817D02*
X850Y817D01*
X1310Y817D02*
X1363Y817D01*
X1396Y817D02*
X1450Y817D01*
X710Y816D02*
X765Y816D01*
X795Y816D02*
X850Y816D01*
X1310Y816D02*
X1365Y816D01*
X1395Y816D02*
X1450Y816D01*
X710Y815D02*
X766Y815D01*
X794Y815D02*
X850Y815D01*
X1310Y815D02*
X1366Y815D01*
X1394Y815D02*
X1450Y815D01*
X710Y814D02*
X767Y814D01*
X792Y814D02*
X850Y814D01*
X1310Y814D02*
X1367Y814D01*
X1392Y814D02*
X1450Y814D01*
X710Y813D02*
X769Y813D01*
X790Y813D02*
X850Y813D01*
X1310Y813D02*
X1369Y813D01*
X1390Y813D02*
X1450Y813D01*
X710Y812D02*
X772Y812D01*
X788Y812D02*
X850Y812D01*
X1310Y812D02*
X1372Y812D01*
X1388Y812D02*
X1450Y812D01*
X710Y811D02*
X850Y811D01*
X1310Y811D02*
X1450Y811D01*
X710Y810D02*
X850Y810D01*
X1310Y810D02*
X1450Y810D01*
X710Y809D02*
X850Y809D01*
X1310Y809D02*
X1450Y809D01*
X710Y808D02*
X850Y808D01*
X1310Y808D02*
X1450Y808D01*
X710Y807D02*
X850Y807D01*
X1310Y807D02*
X1450Y807D01*
X710Y806D02*
X850Y806D01*
X1310Y806D02*
X1450Y806D01*
X710Y805D02*
X850Y805D01*
X1310Y805D02*
X1450Y805D01*
X710Y804D02*
X850Y804D01*
X1310Y804D02*
X1450Y804D01*
X710Y803D02*
X850Y803D01*
X1310Y803D02*
X1450Y803D01*
X710Y802D02*
X850Y802D01*
X1310Y802D02*
X1450Y802D01*
X710Y801D02*
X850Y801D01*
X1310Y801D02*
X1450Y801D01*
X780Y768D02*
X780Y768D01*
X1380Y768D02*
X1380Y768D01*
X710Y767D02*
X850Y767D01*
X1310Y767D02*
X1450Y767D01*
X710Y766D02*
X850Y766D01*
X1310Y766D02*
X1450Y766D01*
X710Y765D02*
X850Y765D01*
X1310Y765D02*
X1450Y765D01*
X710Y764D02*
X850Y764D01*
X1310Y764D02*
X1450Y764D01*
X710Y763D02*
X850Y763D01*
X1310Y763D02*
X1450Y763D01*
X710Y762D02*
X850Y762D01*
X1310Y762D02*
X1450Y762D01*
X710Y761D02*
X850Y761D01*
X1310Y761D02*
X1450Y761D01*
X710Y760D02*
X850Y760D01*
X1310Y760D02*
X1450Y760D01*
X710Y759D02*
X850Y759D01*
X1310Y759D02*
X1450Y759D01*
X710Y758D02*
X850Y758D01*
X1310Y758D02*
X1450Y758D01*
X710Y757D02*
X773Y757D01*
X786Y757D02*
X850Y757D01*
X1310Y757D02*
X1373Y757D01*
X1386Y757D02*
X1450Y757D01*
X710Y756D02*
X770Y756D01*
X789Y756D02*
X850Y756D01*
X1310Y756D02*
X1370Y756D01*
X1389Y756D02*
X1450Y756D01*
X710Y755D02*
X768Y755D01*
X791Y755D02*
X850Y755D01*
X1310Y755D02*
X1368Y755D01*
X1391Y755D02*
X1450Y755D01*
X710Y754D02*
X767Y754D01*
X793Y754D02*
X850Y754D01*
X1310Y754D02*
X1366Y754D01*
X1393Y754D02*
X1450Y754D01*
X710Y753D02*
X765Y753D01*
X794Y753D02*
X850Y753D01*
X1310Y753D02*
X1365Y753D01*
X1394Y753D02*
X1450Y753D01*
X710Y752D02*
X764Y752D01*
X796Y752D02*
X850Y752D01*
X1310Y752D02*
X1364Y752D01*
X1396Y752D02*
X1450Y752D01*
X710Y751D02*
X763Y751D01*
X797Y751D02*
X850Y751D01*
X1310Y751D02*
X1363Y751D01*
X1397Y751D02*
X1450Y751D01*
X710Y750D02*
X762Y750D01*
X798Y750D02*
X850Y750D01*
X1310Y750D02*
X1362Y750D01*
X1398Y750D02*
X1450Y750D01*
X710Y749D02*
X761Y749D01*
X799Y749D02*
X850Y749D01*
X1310Y749D02*
X1361Y749D01*
X1398Y749D02*
X1450Y749D01*
X710Y748D02*
X760Y748D01*
X799Y748D02*
X850Y748D01*
X1310Y748D02*
X1360Y748D01*
X1399Y748D02*
X1450Y748D01*
X710Y747D02*
X760Y747D01*
X800Y747D02*
X850Y747D01*
X1310Y747D02*
X1359Y747D01*
X1400Y747D02*
X1450Y747D01*
X710Y746D02*
X759Y746D01*
X801Y746D02*
X850Y746D01*
X1310Y746D02*
X1359Y746D01*
X1401Y746D02*
X1450Y746D01*
X710Y745D02*
X758Y745D01*
X801Y745D02*
X850Y745D01*
X1310Y745D02*
X1358Y745D01*
X1401Y745D02*
X1450Y745D01*
X710Y744D02*
X758Y744D01*
X802Y744D02*
X850Y744D01*
X1310Y744D02*
X1358Y744D01*
X1402Y744D02*
X1450Y744D01*
X710Y743D02*
X757Y743D01*
X802Y743D02*
X850Y743D01*
X1310Y743D02*
X1357Y743D01*
X1402Y743D02*
X1450Y743D01*
X710Y742D02*
X757Y742D01*
X803Y742D02*
X850Y742D01*
X1310Y742D02*
X1357Y742D01*
X1403Y742D02*
X1450Y742D01*
X710Y741D02*
X757Y741D01*
X803Y741D02*
X850Y741D01*
X1310Y741D02*
X1357Y741D01*
X1403Y741D02*
X1450Y741D01*
X710Y740D02*
X756Y740D01*
X803Y740D02*
X850Y740D01*
X1310Y740D02*
X1356Y740D01*
X1403Y740D02*
X1450Y740D01*
X710Y739D02*
X756Y739D01*
X803Y739D02*
X850Y739D01*
X1310Y739D02*
X1356Y739D01*
X1403Y739D02*
X1450Y739D01*
X710Y738D02*
X756Y738D01*
X804Y738D02*
X850Y738D01*
X1310Y738D02*
X1356Y738D01*
X1403Y738D02*
X1450Y738D01*
X710Y737D02*
X756Y737D01*
X804Y737D02*
X850Y737D01*
X1310Y737D02*
X1356Y737D01*
X1404Y737D02*
X1450Y737D01*
X710Y736D02*
X756Y736D01*
X804Y736D02*
X850Y736D01*
X1310Y736D02*
X1356Y736D01*
X1404Y736D02*
X1450Y736D01*
X710Y735D02*
X756Y735D01*
X804Y735D02*
X850Y735D01*
X1310Y735D02*
X1356Y735D01*
X1404Y735D02*
X1450Y735D01*
X710Y734D02*
X756Y734D01*
X804Y734D02*
X850Y734D01*
X1310Y734D02*
X1356Y734D01*
X1404Y734D02*
X1450Y734D01*
X710Y733D02*
X756Y733D01*
X804Y733D02*
X850Y733D01*
X1310Y733D02*
X1356Y733D01*
X1404Y733D02*
X1450Y733D01*
X710Y732D02*
X756Y732D01*
X804Y732D02*
X850Y732D01*
X1310Y732D02*
X1356Y732D01*
X1404Y732D02*
X1450Y732D01*
X710Y731D02*
X756Y731D01*
X804Y731D02*
X850Y731D01*
X1310Y731D02*
X1356Y731D01*
X1404Y731D02*
X1450Y731D01*
X710Y730D02*
X756Y730D01*
X803Y730D02*
X850Y730D01*
X1310Y730D02*
X1356Y730D01*
X1403Y730D02*
X1450Y730D01*
X710Y729D02*
X756Y729D01*
X803Y729D02*
X850Y729D01*
X1310Y729D02*
X1356Y729D01*
X1403Y729D02*
X1450Y729D01*
X710Y728D02*
X757Y728D01*
X803Y728D02*
X850Y728D01*
X1310Y728D02*
X1357Y728D01*
X1403Y728D02*
X1450Y728D01*
X710Y727D02*
X757Y727D01*
X803Y727D02*
X850Y727D01*
X1310Y727D02*
X1357Y727D01*
X1403Y727D02*
X1450Y727D01*
X710Y726D02*
X757Y726D01*
X802Y726D02*
X850Y726D01*
X1310Y726D02*
X1357Y726D01*
X1402Y726D02*
X1450Y726D01*
X710Y725D02*
X758Y725D01*
X802Y725D02*
X850Y725D01*
X1310Y725D02*
X1358Y725D01*
X1402Y725D02*
X1450Y725D01*
X710Y724D02*
X758Y724D01*
X801Y724D02*
X850Y724D01*
X1310Y724D02*
X1358Y724D01*
X1401Y724D02*
X1450Y724D01*
X710Y723D02*
X759Y723D01*
X801Y723D02*
X850Y723D01*
X1310Y723D02*
X1359Y723D01*
X1401Y723D02*
X1450Y723D01*
X710Y722D02*
X759Y722D01*
X800Y722D02*
X850Y722D01*
X1310Y722D02*
X1359Y722D01*
X1400Y722D02*
X1450Y722D01*
X710Y721D02*
X760Y721D01*
X800Y721D02*
X850Y721D01*
X1310Y721D02*
X1360Y721D01*
X1400Y721D02*
X1450Y721D01*
X710Y720D02*
X761Y720D01*
X799Y720D02*
X850Y720D01*
X1310Y720D02*
X1361Y720D01*
X1399Y720D02*
X1450Y720D01*
X710Y719D02*
X762Y719D01*
X798Y719D02*
X850Y719D01*
X1310Y719D02*
X1362Y719D01*
X1398Y719D02*
X1450Y719D01*
X710Y718D02*
X762Y718D01*
X797Y718D02*
X850Y718D01*
X1310Y718D02*
X1362Y718D01*
X1397Y718D02*
X1450Y718D01*
X710Y717D02*
X763Y717D01*
X796Y717D02*
X850Y717D01*
X1310Y717D02*
X1363Y717D01*
X1396Y717D02*
X1450Y717D01*
X710Y716D02*
X765Y716D01*
X795Y716D02*
X850Y716D01*
X1310Y716D02*
X1365Y716D01*
X1395Y716D02*
X1450Y716D01*
X710Y715D02*
X766Y715D01*
X794Y715D02*
X850Y715D01*
X1310Y715D02*
X1366Y715D01*
X1394Y715D02*
X1450Y715D01*
X710Y714D02*
X767Y714D01*
X792Y714D02*
X850Y714D01*
X1310Y714D02*
X1367Y714D01*
X1392Y714D02*
X1450Y714D01*
X710Y713D02*
X769Y713D01*
X790Y713D02*
X850Y713D01*
X1310Y713D02*
X1369Y713D01*
X1390Y713D02*
X1450Y713D01*
X710Y712D02*
X772Y712D01*
X788Y712D02*
X850Y712D01*
X1310Y712D02*
X1372Y712D01*
X1388Y712D02*
X1450Y712D01*
X710Y711D02*
X850Y711D01*
X1310Y711D02*
X1450Y711D01*
X710Y710D02*
X850Y710D01*
X1310Y710D02*
X1450Y710D01*
X710Y709D02*
X850Y709D01*
X1310Y709D02*
X1450Y709D01*
X710Y708D02*
X850Y708D01*
X1310Y708D02*
X1450Y708D01*
X710Y707D02*
X850Y707D01*
X1310Y707D02*
X1450Y707D01*
X710Y706D02*
X850Y706D01*
X1310Y706D02*
X1450Y706D01*
X710Y705D02*
X850Y705D01*
X1310Y705D02*
X1450Y705D01*
X710Y704D02*
X850Y704D01*
X1310Y704D02*
X1450Y704D01*
X710Y703D02*
X850Y703D01*
X1310Y703D02*
X1450Y703D01*
X710Y702D02*
X850Y702D01*
X1310Y702D02*
X1450Y702D01*
X710Y701D02*
X850Y701D01*
X1310Y701D02*
X1450Y701D01*
X780Y668D02*
X780Y668D01*
X1380Y668D02*
X1380Y668D01*
X710Y667D02*
X850Y667D01*
X1310Y667D02*
X1450Y667D01*
X710Y666D02*
X850Y666D01*
X1310Y666D02*
X1450Y666D01*
X710Y665D02*
X850Y665D01*
X1310Y665D02*
X1450Y665D01*
X710Y664D02*
X850Y664D01*
X1310Y664D02*
X1450Y664D01*
X710Y663D02*
X850Y663D01*
X1310Y663D02*
X1450Y663D01*
X710Y662D02*
X850Y662D01*
X1310Y662D02*
X1450Y662D01*
X710Y661D02*
X850Y661D01*
X1310Y661D02*
X1450Y661D01*
X710Y660D02*
X850Y660D01*
X1310Y660D02*
X1450Y660D01*
X710Y659D02*
X850Y659D01*
X1310Y659D02*
X1450Y659D01*
X710Y658D02*
X850Y658D01*
X1310Y658D02*
X1450Y658D01*
X710Y657D02*
X773Y657D01*
X786Y657D02*
X850Y657D01*
X1310Y657D02*
X1373Y657D01*
X1386Y657D02*
X1450Y657D01*
X710Y656D02*
X770Y656D01*
X789Y656D02*
X850Y656D01*
X1310Y656D02*
X1370Y656D01*
X1389Y656D02*
X1450Y656D01*
X710Y655D02*
X768Y655D01*
X791Y655D02*
X850Y655D01*
X1310Y655D02*
X1368Y655D01*
X1391Y655D02*
X1450Y655D01*
X710Y654D02*
X767Y654D01*
X793Y654D02*
X850Y654D01*
X1310Y654D02*
X1366Y654D01*
X1393Y654D02*
X1450Y654D01*
X710Y653D02*
X765Y653D01*
X794Y653D02*
X850Y653D01*
X1310Y653D02*
X1365Y653D01*
X1394Y653D02*
X1450Y653D01*
X710Y652D02*
X764Y652D01*
X796Y652D02*
X850Y652D01*
X1310Y652D02*
X1364Y652D01*
X1396Y652D02*
X1450Y652D01*
X710Y651D02*
X763Y651D01*
X797Y651D02*
X850Y651D01*
X1310Y651D02*
X1363Y651D01*
X1397Y651D02*
X1450Y651D01*
X710Y650D02*
X762Y650D01*
X798Y650D02*
X850Y650D01*
X1310Y650D02*
X1362Y650D01*
X1398Y650D02*
X1450Y650D01*
X710Y649D02*
X761Y649D01*
X799Y649D02*
X850Y649D01*
X1310Y649D02*
X1361Y649D01*
X1398Y649D02*
X1450Y649D01*
X710Y648D02*
X760Y648D01*
X799Y648D02*
X850Y648D01*
X1310Y648D02*
X1360Y648D01*
X1399Y648D02*
X1450Y648D01*
X710Y647D02*
X760Y647D01*
X800Y647D02*
X850Y647D01*
X1310Y647D02*
X1359Y647D01*
X1400Y647D02*
X1450Y647D01*
X710Y646D02*
X759Y646D01*
X801Y646D02*
X850Y646D01*
X1310Y646D02*
X1359Y646D01*
X1401Y646D02*
X1450Y646D01*
X710Y645D02*
X758Y645D01*
X801Y645D02*
X850Y645D01*
X1310Y645D02*
X1358Y645D01*
X1401Y645D02*
X1450Y645D01*
X710Y644D02*
X758Y644D01*
X802Y644D02*
X850Y644D01*
X1310Y644D02*
X1358Y644D01*
X1402Y644D02*
X1450Y644D01*
X710Y643D02*
X757Y643D01*
X802Y643D02*
X850Y643D01*
X1310Y643D02*
X1357Y643D01*
X1402Y643D02*
X1450Y643D01*
X710Y642D02*
X757Y642D01*
X803Y642D02*
X850Y642D01*
X1310Y642D02*
X1357Y642D01*
X1403Y642D02*
X1450Y642D01*
X710Y641D02*
X757Y641D01*
X803Y641D02*
X850Y641D01*
X1310Y641D02*
X1357Y641D01*
X1403Y641D02*
X1450Y641D01*
X710Y640D02*
X756Y640D01*
X803Y640D02*
X850Y640D01*
X1310Y640D02*
X1356Y640D01*
X1403Y640D02*
X1450Y640D01*
X710Y639D02*
X756Y639D01*
X803Y639D02*
X850Y639D01*
X1310Y639D02*
X1356Y639D01*
X1403Y639D02*
X1450Y639D01*
X710Y638D02*
X756Y638D01*
X804Y638D02*
X850Y638D01*
X1310Y638D02*
X1356Y638D01*
X1403Y638D02*
X1450Y638D01*
X710Y637D02*
X756Y637D01*
X804Y637D02*
X850Y637D01*
X1310Y637D02*
X1356Y637D01*
X1404Y637D02*
X1450Y637D01*
X710Y636D02*
X756Y636D01*
X804Y636D02*
X850Y636D01*
X1310Y636D02*
X1356Y636D01*
X1404Y636D02*
X1450Y636D01*
X710Y635D02*
X756Y635D01*
X804Y635D02*
X850Y635D01*
X1310Y635D02*
X1356Y635D01*
X1404Y635D02*
X1450Y635D01*
X710Y634D02*
X756Y634D01*
X804Y634D02*
X850Y634D01*
X1310Y634D02*
X1356Y634D01*
X1404Y634D02*
X1450Y634D01*
X710Y633D02*
X756Y633D01*
X804Y633D02*
X850Y633D01*
X1310Y633D02*
X1356Y633D01*
X1404Y633D02*
X1450Y633D01*
X710Y632D02*
X756Y632D01*
X804Y632D02*
X850Y632D01*
X1310Y632D02*
X1356Y632D01*
X1404Y632D02*
X1450Y632D01*
X710Y631D02*
X756Y631D01*
X804Y631D02*
X850Y631D01*
X1310Y631D02*
X1356Y631D01*
X1404Y631D02*
X1450Y631D01*
X710Y630D02*
X756Y630D01*
X803Y630D02*
X850Y630D01*
X1310Y630D02*
X1356Y630D01*
X1403Y630D02*
X1450Y630D01*
X710Y629D02*
X756Y629D01*
X803Y629D02*
X850Y629D01*
X1310Y629D02*
X1356Y629D01*
X1403Y629D02*
X1450Y629D01*
X710Y628D02*
X757Y628D01*
X803Y628D02*
X850Y628D01*
X1310Y628D02*
X1357Y628D01*
X1403Y628D02*
X1450Y628D01*
X710Y627D02*
X757Y627D01*
X803Y627D02*
X850Y627D01*
X1310Y627D02*
X1357Y627D01*
X1403Y627D02*
X1450Y627D01*
X710Y626D02*
X757Y626D01*
X802Y626D02*
X850Y626D01*
X1310Y626D02*
X1357Y626D01*
X1402Y626D02*
X1450Y626D01*
X710Y625D02*
X758Y625D01*
X802Y625D02*
X850Y625D01*
X1310Y625D02*
X1358Y625D01*
X1402Y625D02*
X1450Y625D01*
X710Y624D02*
X758Y624D01*
X801Y624D02*
X850Y624D01*
X1310Y624D02*
X1358Y624D01*
X1401Y624D02*
X1450Y624D01*
X710Y623D02*
X759Y623D01*
X801Y623D02*
X850Y623D01*
X1310Y623D02*
X1359Y623D01*
X1401Y623D02*
X1450Y623D01*
X710Y622D02*
X759Y622D01*
X800Y622D02*
X850Y622D01*
X1310Y622D02*
X1359Y622D01*
X1400Y622D02*
X1450Y622D01*
X710Y621D02*
X760Y621D01*
X800Y621D02*
X850Y621D01*
X1310Y621D02*
X1360Y621D01*
X1400Y621D02*
X1450Y621D01*
X710Y620D02*
X761Y620D01*
X799Y620D02*
X850Y620D01*
X1310Y620D02*
X1361Y620D01*
X1399Y620D02*
X1450Y620D01*
X710Y619D02*
X762Y619D01*
X798Y619D02*
X850Y619D01*
X1310Y619D02*
X1362Y619D01*
X1398Y619D02*
X1450Y619D01*
X710Y618D02*
X762Y618D01*
X797Y618D02*
X850Y618D01*
X1310Y618D02*
X1362Y618D01*
X1397Y618D02*
X1450Y618D01*
X710Y617D02*
X763Y617D01*
X796Y617D02*
X850Y617D01*
X1310Y617D02*
X1363Y617D01*
X1396Y617D02*
X1450Y617D01*
X710Y616D02*
X765Y616D01*
X795Y616D02*
X850Y616D01*
X1310Y616D02*
X1365Y616D01*
X1395Y616D02*
X1450Y616D01*
X710Y615D02*
X766Y615D01*
X794Y615D02*
X850Y615D01*
X1310Y615D02*
X1366Y615D01*
X1394Y615D02*
X1450Y615D01*
X710Y614D02*
X767Y614D01*
X792Y614D02*
X850Y614D01*
X1310Y614D02*
X1367Y614D01*
X1392Y614D02*
X1450Y614D01*
X710Y613D02*
X769Y613D01*
X790Y613D02*
X850Y613D01*
X1310Y613D02*
X1369Y613D01*
X1390Y613D02*
X1450Y613D01*
X710Y612D02*
X772Y612D01*
X788Y612D02*
X850Y612D01*
X1310Y612D02*
X1372Y612D01*
X1388Y612D02*
X1450Y612D01*
X710Y611D02*
X850Y611D01*
X1310Y611D02*
X1450Y611D01*
X710Y610D02*
X850Y610D01*
X1310Y610D02*
X1450Y610D01*
X710Y609D02*
X850Y609D01*
X1310Y609D02*
X1450Y609D01*
X710Y608D02*
X850Y608D01*
X1310Y608D02*
X1450Y608D01*
X710Y607D02*
X850Y607D01*
X1310Y607D02*
X1450Y607D01*
X710Y606D02*
X850Y606D01*
X1310Y606D02*
X1450Y606D01*
X710Y605D02*
X850Y605D01*
X1310Y605D02*
X1450Y605D01*
X710Y604D02*
X850Y604D01*
X1310Y604D02*
X1450Y604D01*
X710Y603D02*
X850Y603D01*
X1310Y603D02*
X1450Y603D01*
X710Y602D02*
X850Y602D01*
X1310Y602D02*
X1450Y602D01*
X710Y601D02*
X850Y601D01*
X1310Y601D02*
X1450Y601D01*
X779Y568D02*
X781Y568D01*
X1379Y568D02*
X1380Y568D01*
X710Y567D02*
X850Y567D01*
X1310Y567D02*
X1450Y567D01*
X710Y566D02*
X850Y566D01*
X1310Y566D02*
X1450Y566D01*
X710Y565D02*
X850Y565D01*
X1310Y565D02*
X1450Y565D01*
X710Y564D02*
X850Y564D01*
X1310Y564D02*
X1450Y564D01*
X710Y563D02*
X850Y563D01*
X1310Y563D02*
X1450Y563D01*
X710Y562D02*
X850Y562D01*
X1310Y562D02*
X1450Y562D01*
X710Y561D02*
X850Y561D01*
X1310Y561D02*
X1450Y561D01*
X710Y560D02*
X850Y560D01*
X1310Y560D02*
X1450Y560D01*
X710Y559D02*
X850Y559D01*
X1310Y559D02*
X1450Y559D01*
X710Y558D02*
X850Y558D01*
X1310Y558D02*
X1450Y558D01*
X710Y557D02*
X773Y557D01*
X786Y557D02*
X850Y557D01*
X1310Y557D02*
X1373Y557D01*
X1386Y557D02*
X1450Y557D01*
X710Y556D02*
X770Y556D01*
X789Y556D02*
X850Y556D01*
X1310Y556D02*
X1370Y556D01*
X1389Y556D02*
X1450Y556D01*
X710Y555D02*
X768Y555D01*
X791Y555D02*
X850Y555D01*
X1310Y555D02*
X1368Y555D01*
X1391Y555D02*
X1450Y555D01*
X710Y554D02*
X766Y554D01*
X793Y554D02*
X850Y554D01*
X1310Y554D02*
X1366Y554D01*
X1393Y554D02*
X1450Y554D01*
X710Y553D02*
X765Y553D01*
X794Y553D02*
X850Y553D01*
X1310Y553D02*
X1365Y553D01*
X1394Y553D02*
X1450Y553D01*
X710Y552D02*
X764Y552D01*
X796Y552D02*
X850Y552D01*
X1310Y552D02*
X1364Y552D01*
X1396Y552D02*
X1450Y552D01*
X710Y551D02*
X763Y551D01*
X797Y551D02*
X850Y551D01*
X1310Y551D02*
X1363Y551D01*
X1397Y551D02*
X1450Y551D01*
X710Y550D02*
X762Y550D01*
X798Y550D02*
X850Y550D01*
X1310Y550D02*
X1362Y550D01*
X1398Y550D02*
X1450Y550D01*
X710Y549D02*
X761Y549D01*
X799Y549D02*
X850Y549D01*
X1310Y549D02*
X1361Y549D01*
X1398Y549D02*
X1450Y549D01*
X710Y548D02*
X760Y548D01*
X799Y548D02*
X850Y548D01*
X1310Y548D02*
X1360Y548D01*
X1399Y548D02*
X1450Y548D01*
X710Y547D02*
X760Y547D01*
X800Y547D02*
X850Y547D01*
X1310Y547D02*
X1359Y547D01*
X1400Y547D02*
X1450Y547D01*
X710Y546D02*
X759Y546D01*
X801Y546D02*
X850Y546D01*
X1310Y546D02*
X1359Y546D01*
X1401Y546D02*
X1450Y546D01*
X710Y545D02*
X758Y545D01*
X801Y545D02*
X850Y545D01*
X1310Y545D02*
X1358Y545D01*
X1401Y545D02*
X1450Y545D01*
X710Y544D02*
X758Y544D01*
X802Y544D02*
X850Y544D01*
X1310Y544D02*
X1358Y544D01*
X1402Y544D02*
X1450Y544D01*
X710Y543D02*
X757Y543D01*
X802Y543D02*
X850Y543D01*
X1310Y543D02*
X1357Y543D01*
X1402Y543D02*
X1450Y543D01*
X710Y542D02*
X757Y542D01*
X803Y542D02*
X850Y542D01*
X1310Y542D02*
X1357Y542D01*
X1403Y542D02*
X1450Y542D01*
X710Y541D02*
X757Y541D01*
X803Y541D02*
X850Y541D01*
X1310Y541D02*
X1357Y541D01*
X1403Y541D02*
X1450Y541D01*
X710Y540D02*
X756Y540D01*
X803Y540D02*
X850Y540D01*
X1310Y540D02*
X1356Y540D01*
X1403Y540D02*
X1450Y540D01*
X710Y539D02*
X756Y539D01*
X803Y539D02*
X850Y539D01*
X1310Y539D02*
X1356Y539D01*
X1403Y539D02*
X1450Y539D01*
X710Y538D02*
X756Y538D01*
X804Y538D02*
X850Y538D01*
X1310Y538D02*
X1356Y538D01*
X1403Y538D02*
X1450Y538D01*
X710Y537D02*
X756Y537D01*
X804Y537D02*
X850Y537D01*
X1310Y537D02*
X1356Y537D01*
X1404Y537D02*
X1450Y537D01*
X710Y536D02*
X756Y536D01*
X804Y536D02*
X850Y536D01*
X1310Y536D02*
X1356Y536D01*
X1404Y536D02*
X1450Y536D01*
X710Y535D02*
X756Y535D01*
X804Y535D02*
X850Y535D01*
X1310Y535D02*
X1356Y535D01*
X1404Y535D02*
X1450Y535D01*
X710Y534D02*
X756Y534D01*
X804Y534D02*
X850Y534D01*
X1310Y534D02*
X1356Y534D01*
X1404Y534D02*
X1450Y534D01*
X710Y533D02*
X756Y533D01*
X804Y533D02*
X850Y533D01*
X1310Y533D02*
X1356Y533D01*
X1404Y533D02*
X1450Y533D01*
X710Y532D02*
X756Y532D01*
X804Y532D02*
X850Y532D01*
X1310Y532D02*
X1356Y532D01*
X1404Y532D02*
X1450Y532D01*
X710Y531D02*
X756Y531D01*
X804Y531D02*
X850Y531D01*
X1310Y531D02*
X1356Y531D01*
X1404Y531D02*
X1450Y531D01*
X710Y530D02*
X756Y530D01*
X803Y530D02*
X850Y530D01*
X1310Y530D02*
X1356Y530D01*
X1403Y530D02*
X1450Y530D01*
X710Y529D02*
X756Y529D01*
X803Y529D02*
X850Y529D01*
X1310Y529D02*
X1356Y529D01*
X1403Y529D02*
X1450Y529D01*
X710Y528D02*
X757Y528D01*
X803Y528D02*
X850Y528D01*
X1310Y528D02*
X1357Y528D01*
X1403Y528D02*
X1450Y528D01*
X710Y527D02*
X757Y527D01*
X803Y527D02*
X850Y527D01*
X1310Y527D02*
X1357Y527D01*
X1403Y527D02*
X1450Y527D01*
X710Y526D02*
X757Y526D01*
X802Y526D02*
X850Y526D01*
X1310Y526D02*
X1357Y526D01*
X1402Y526D02*
X1450Y526D01*
X710Y525D02*
X758Y525D01*
X802Y525D02*
X850Y525D01*
X1310Y525D02*
X1358Y525D01*
X1402Y525D02*
X1450Y525D01*
X710Y524D02*
X758Y524D01*
X801Y524D02*
X850Y524D01*
X1310Y524D02*
X1358Y524D01*
X1401Y524D02*
X1450Y524D01*
X710Y523D02*
X759Y523D01*
X801Y523D02*
X850Y523D01*
X1310Y523D02*
X1359Y523D01*
X1401Y523D02*
X1450Y523D01*
X710Y522D02*
X759Y522D01*
X800Y522D02*
X850Y522D01*
X1310Y522D02*
X1359Y522D01*
X1400Y522D02*
X1450Y522D01*
X710Y521D02*
X760Y521D01*
X800Y521D02*
X850Y521D01*
X1310Y521D02*
X1360Y521D01*
X1400Y521D02*
X1450Y521D01*
X710Y520D02*
X761Y520D01*
X799Y520D02*
X850Y520D01*
X1310Y520D02*
X1361Y520D01*
X1399Y520D02*
X1450Y520D01*
X710Y519D02*
X762Y519D01*
X798Y519D02*
X850Y519D01*
X1310Y519D02*
X1362Y519D01*
X1398Y519D02*
X1450Y519D01*
X710Y518D02*
X762Y518D01*
X797Y518D02*
X850Y518D01*
X1310Y518D02*
X1362Y518D01*
X1397Y518D02*
X1450Y518D01*
X710Y517D02*
X763Y517D01*
X796Y517D02*
X850Y517D01*
X1310Y517D02*
X1363Y517D01*
X1396Y517D02*
X1450Y517D01*
X710Y516D02*
X765Y516D01*
X795Y516D02*
X850Y516D01*
X1310Y516D02*
X1365Y516D01*
X1395Y516D02*
X1450Y516D01*
X710Y515D02*
X766Y515D01*
X794Y515D02*
X850Y515D01*
X1310Y515D02*
X1366Y515D01*
X1394Y515D02*
X1450Y515D01*
X710Y514D02*
X767Y514D01*
X792Y514D02*
X850Y514D01*
X1310Y514D02*
X1367Y514D01*
X1392Y514D02*
X1450Y514D01*
X710Y513D02*
X769Y513D01*
X790Y513D02*
X850Y513D01*
X1310Y513D02*
X1369Y513D01*
X1390Y513D02*
X1450Y513D01*
X710Y512D02*
X772Y512D01*
X788Y512D02*
X850Y512D01*
X1310Y512D02*
X1372Y512D01*
X1388Y512D02*
X1450Y512D01*
X710Y511D02*
X850Y511D01*
X1310Y511D02*
X1450Y511D01*
X710Y510D02*
X850Y510D01*
X1310Y510D02*
X1450Y510D01*
X710Y509D02*
X850Y509D01*
X1310Y509D02*
X1450Y509D01*
X710Y508D02*
X850Y508D01*
X1310Y508D02*
X1450Y508D01*
X710Y507D02*
X850Y507D01*
X1310Y507D02*
X1450Y507D01*
X710Y506D02*
X850Y506D01*
X1310Y506D02*
X1450Y506D01*
X710Y505D02*
X850Y505D01*
X1310Y505D02*
X1450Y505D01*
X710Y504D02*
X850Y504D01*
X1310Y504D02*
X1450Y504D01*
X710Y503D02*
X850Y503D01*
X1310Y503D02*
X1450Y503D01*
X710Y502D02*
X850Y502D01*
X1310Y502D02*
X1450Y502D01*
X710Y501D02*
X850Y501D01*
X1310Y501D02*
X1450Y501D01*
X779Y468D02*
X781Y468D01*
X1379Y468D02*
X1380Y468D01*
X710Y467D02*
X850Y467D01*
X1310Y467D02*
X1450Y467D01*
X710Y466D02*
X850Y466D01*
X1310Y466D02*
X1450Y466D01*
X710Y465D02*
X850Y465D01*
X1310Y465D02*
X1450Y465D01*
X710Y464D02*
X850Y464D01*
X1310Y464D02*
X1450Y464D01*
X710Y463D02*
X850Y463D01*
X1310Y463D02*
X1450Y463D01*
X710Y462D02*
X850Y462D01*
X1310Y462D02*
X1450Y462D01*
X710Y461D02*
X850Y461D01*
X1310Y461D02*
X1450Y461D01*
X710Y460D02*
X850Y460D01*
X1310Y460D02*
X1450Y460D01*
X710Y459D02*
X850Y459D01*
X1310Y459D02*
X1450Y459D01*
X710Y458D02*
X850Y458D01*
X1310Y458D02*
X1450Y458D01*
X710Y457D02*
X773Y457D01*
X787Y457D02*
X850Y457D01*
X1310Y457D02*
X1373Y457D01*
X1386Y457D02*
X1450Y457D01*
X710Y456D02*
X770Y456D01*
X789Y456D02*
X850Y456D01*
X1310Y456D02*
X1370Y456D01*
X1389Y456D02*
X1450Y456D01*
X710Y455D02*
X768Y455D01*
X791Y455D02*
X850Y455D01*
X1310Y455D02*
X1368Y455D01*
X1391Y455D02*
X1450Y455D01*
X710Y454D02*
X766Y454D01*
X793Y454D02*
X850Y454D01*
X1310Y454D02*
X1366Y454D01*
X1393Y454D02*
X1450Y454D01*
X710Y453D02*
X765Y453D01*
X794Y453D02*
X850Y453D01*
X1310Y453D02*
X1365Y453D01*
X1394Y453D02*
X1450Y453D01*
X710Y452D02*
X764Y452D01*
X796Y452D02*
X850Y452D01*
X1310Y452D02*
X1364Y452D01*
X1396Y452D02*
X1450Y452D01*
X710Y451D02*
X763Y451D01*
X797Y451D02*
X850Y451D01*
X1310Y451D02*
X1363Y451D01*
X1397Y451D02*
X1450Y451D01*
X710Y450D02*
X762Y450D01*
X798Y450D02*
X850Y450D01*
X1310Y450D02*
X1362Y450D01*
X1398Y450D02*
X1450Y450D01*
X710Y449D02*
X761Y449D01*
X799Y449D02*
X850Y449D01*
X1310Y449D02*
X1361Y449D01*
X1398Y449D02*
X1450Y449D01*
X710Y448D02*
X760Y448D01*
X799Y448D02*
X850Y448D01*
X1310Y448D02*
X1360Y448D01*
X1399Y448D02*
X1450Y448D01*
X710Y447D02*
X760Y447D01*
X800Y447D02*
X850Y447D01*
X1310Y447D02*
X1359Y447D01*
X1400Y447D02*
X1450Y447D01*
X710Y446D02*
X759Y446D01*
X801Y446D02*
X850Y446D01*
X1310Y446D02*
X1359Y446D01*
X1401Y446D02*
X1450Y446D01*
X710Y445D02*
X758Y445D01*
X801Y445D02*
X850Y445D01*
X1310Y445D02*
X1358Y445D01*
X1401Y445D02*
X1450Y445D01*
X710Y444D02*
X758Y444D01*
X802Y444D02*
X850Y444D01*
X1310Y444D02*
X1358Y444D01*
X1402Y444D02*
X1450Y444D01*
X710Y443D02*
X757Y443D01*
X802Y443D02*
X850Y443D01*
X1310Y443D02*
X1357Y443D01*
X1402Y443D02*
X1450Y443D01*
X710Y442D02*
X757Y442D01*
X803Y442D02*
X850Y442D01*
X1310Y442D02*
X1357Y442D01*
X1403Y442D02*
X1450Y442D01*
X710Y441D02*
X757Y441D01*
X803Y441D02*
X850Y441D01*
X1310Y441D02*
X1357Y441D01*
X1403Y441D02*
X1450Y441D01*
X710Y440D02*
X756Y440D01*
X803Y440D02*
X850Y440D01*
X1310Y440D02*
X1356Y440D01*
X1403Y440D02*
X1450Y440D01*
X710Y439D02*
X756Y439D01*
X803Y439D02*
X850Y439D01*
X1310Y439D02*
X1356Y439D01*
X1403Y439D02*
X1450Y439D01*
X710Y438D02*
X756Y438D01*
X804Y438D02*
X850Y438D01*
X1310Y438D02*
X1356Y438D01*
X1403Y438D02*
X1450Y438D01*
X710Y437D02*
X756Y437D01*
X804Y437D02*
X850Y437D01*
X1310Y437D02*
X1356Y437D01*
X1404Y437D02*
X1450Y437D01*
X710Y436D02*
X756Y436D01*
X804Y436D02*
X850Y436D01*
X1310Y436D02*
X1356Y436D01*
X1404Y436D02*
X1450Y436D01*
X710Y435D02*
X756Y435D01*
X804Y435D02*
X850Y435D01*
X1310Y435D02*
X1356Y435D01*
X1404Y435D02*
X1450Y435D01*
X710Y434D02*
X756Y434D01*
X804Y434D02*
X850Y434D01*
X1310Y434D02*
X1356Y434D01*
X1404Y434D02*
X1450Y434D01*
X710Y433D02*
X756Y433D01*
X804Y433D02*
X850Y433D01*
X1310Y433D02*
X1356Y433D01*
X1404Y433D02*
X1450Y433D01*
X710Y432D02*
X756Y432D01*
X804Y432D02*
X850Y432D01*
X1310Y432D02*
X1356Y432D01*
X1404Y432D02*
X1450Y432D01*
X710Y431D02*
X756Y431D01*
X804Y431D02*
X850Y431D01*
X1310Y431D02*
X1356Y431D01*
X1404Y431D02*
X1450Y431D01*
X710Y430D02*
X756Y430D01*
X803Y430D02*
X850Y430D01*
X1310Y430D02*
X1356Y430D01*
X1403Y430D02*
X1450Y430D01*
X710Y429D02*
X756Y429D01*
X803Y429D02*
X850Y429D01*
X1310Y429D02*
X1356Y429D01*
X1403Y429D02*
X1450Y429D01*
X710Y428D02*
X757Y428D01*
X803Y428D02*
X850Y428D01*
X1310Y428D02*
X1357Y428D01*
X1403Y428D02*
X1450Y428D01*
X710Y427D02*
X757Y427D01*
X803Y427D02*
X850Y427D01*
X1310Y427D02*
X1357Y427D01*
X1403Y427D02*
X1450Y427D01*
X710Y426D02*
X757Y426D01*
X802Y426D02*
X850Y426D01*
X1310Y426D02*
X1357Y426D01*
X1402Y426D02*
X1450Y426D01*
X710Y425D02*
X758Y425D01*
X802Y425D02*
X850Y425D01*
X1310Y425D02*
X1358Y425D01*
X1402Y425D02*
X1450Y425D01*
X710Y424D02*
X758Y424D01*
X801Y424D02*
X850Y424D01*
X1310Y424D02*
X1358Y424D01*
X1401Y424D02*
X1450Y424D01*
X710Y423D02*
X759Y423D01*
X801Y423D02*
X850Y423D01*
X1310Y423D02*
X1359Y423D01*
X1401Y423D02*
X1450Y423D01*
X710Y422D02*
X759Y422D01*
X800Y422D02*
X850Y422D01*
X1310Y422D02*
X1359Y422D01*
X1400Y422D02*
X1450Y422D01*
X710Y421D02*
X760Y421D01*
X800Y421D02*
X850Y421D01*
X1310Y421D02*
X1360Y421D01*
X1400Y421D02*
X1450Y421D01*
X710Y420D02*
X761Y420D01*
X799Y420D02*
X850Y420D01*
X1310Y420D02*
X1361Y420D01*
X1399Y420D02*
X1450Y420D01*
X710Y419D02*
X762Y419D01*
X798Y419D02*
X850Y419D01*
X1310Y419D02*
X1362Y419D01*
X1398Y419D02*
X1450Y419D01*
X710Y418D02*
X762Y418D01*
X797Y418D02*
X850Y418D01*
X1310Y418D02*
X1362Y418D01*
X1397Y418D02*
X1450Y418D01*
X710Y417D02*
X764Y417D01*
X796Y417D02*
X850Y417D01*
X1310Y417D02*
X1363Y417D01*
X1396Y417D02*
X1450Y417D01*
X710Y416D02*
X765Y416D01*
X795Y416D02*
X850Y416D01*
X1310Y416D02*
X1365Y416D01*
X1395Y416D02*
X1450Y416D01*
X710Y415D02*
X766Y415D01*
X794Y415D02*
X850Y415D01*
X1310Y415D02*
X1366Y415D01*
X1394Y415D02*
X1450Y415D01*
X710Y414D02*
X767Y414D01*
X792Y414D02*
X850Y414D01*
X1310Y414D02*
X1367Y414D01*
X1392Y414D02*
X1450Y414D01*
X710Y413D02*
X769Y413D01*
X790Y413D02*
X850Y413D01*
X1310Y413D02*
X1369Y413D01*
X1390Y413D02*
X1450Y413D01*
X710Y412D02*
X772Y412D01*
X788Y412D02*
X850Y412D01*
X1310Y412D02*
X1372Y412D01*
X1388Y412D02*
X1450Y412D01*
X710Y411D02*
X850Y411D01*
X1310Y411D02*
X1450Y411D01*
X710Y410D02*
X850Y410D01*
X1310Y410D02*
X1450Y410D01*
X710Y409D02*
X850Y409D01*
X1310Y409D02*
X1450Y409D01*
X710Y408D02*
X850Y408D01*
X1310Y408D02*
X1450Y408D01*
X710Y407D02*
X850Y407D01*
X1310Y407D02*
X1450Y407D01*
X710Y406D02*
X850Y406D01*
X1310Y406D02*
X1450Y406D01*
X710Y405D02*
X850Y405D01*
X1310Y405D02*
X1450Y405D01*
X710Y404D02*
X850Y404D01*
X1310Y404D02*
X1450Y404D01*
X710Y403D02*
X850Y403D01*
X1310Y403D02*
X1450Y403D01*
X710Y402D02*
X850Y402D01*
X1310Y402D02*
X1450Y402D01*
X710Y401D02*
X850Y401D01*
X1310Y401D02*
X1450Y401D01*
X779Y368D02*
X781Y368D01*
X1379Y368D02*
X1381Y368D01*
X710Y367D02*
X850Y367D01*
X1310Y367D02*
X1450Y367D01*
X710Y366D02*
X850Y366D01*
X1310Y366D02*
X1450Y366D01*
X710Y365D02*
X850Y365D01*
X1310Y365D02*
X1450Y365D01*
X710Y364D02*
X850Y364D01*
X1310Y364D02*
X1450Y364D01*
X710Y363D02*
X850Y363D01*
X1310Y363D02*
X1450Y363D01*
X710Y362D02*
X850Y362D01*
X1310Y362D02*
X1450Y362D01*
X710Y361D02*
X850Y361D01*
X1310Y361D02*
X1450Y361D01*
X710Y360D02*
X850Y360D01*
X1310Y360D02*
X1450Y360D01*
X710Y359D02*
X850Y359D01*
X1310Y359D02*
X1450Y359D01*
X710Y358D02*
X850Y358D01*
X1310Y358D02*
X1450Y358D01*
X710Y357D02*
X773Y357D01*
X787Y357D02*
X850Y357D01*
X1310Y357D02*
X1373Y357D01*
X1386Y357D02*
X1450Y357D01*
X710Y356D02*
X770Y356D01*
X790Y356D02*
X850Y356D01*
X1310Y356D02*
X1370Y356D01*
X1389Y356D02*
X1450Y356D01*
X710Y355D02*
X768Y355D01*
X791Y355D02*
X850Y355D01*
X1310Y355D02*
X1368Y355D01*
X1391Y355D02*
X1450Y355D01*
X710Y354D02*
X766Y354D01*
X793Y354D02*
X850Y354D01*
X1310Y354D02*
X1366Y354D01*
X1393Y354D02*
X1450Y354D01*
X710Y353D02*
X765Y353D01*
X794Y353D02*
X850Y353D01*
X1310Y353D02*
X1365Y353D01*
X1394Y353D02*
X1450Y353D01*
X710Y352D02*
X764Y352D01*
X796Y352D02*
X850Y352D01*
X1310Y352D02*
X1364Y352D01*
X1396Y352D02*
X1450Y352D01*
X710Y351D02*
X763Y351D01*
X797Y351D02*
X850Y351D01*
X1310Y351D02*
X1363Y351D01*
X1397Y351D02*
X1450Y351D01*
X710Y350D02*
X762Y350D01*
X798Y350D02*
X850Y350D01*
X1310Y350D02*
X1362Y350D01*
X1398Y350D02*
X1450Y350D01*
X710Y349D02*
X761Y349D01*
X799Y349D02*
X850Y349D01*
X1310Y349D02*
X1361Y349D01*
X1398Y349D02*
X1450Y349D01*
X710Y348D02*
X760Y348D01*
X799Y348D02*
X850Y348D01*
X1310Y348D02*
X1360Y348D01*
X1399Y348D02*
X1450Y348D01*
X710Y347D02*
X760Y347D01*
X800Y347D02*
X850Y347D01*
X1310Y347D02*
X1359Y347D01*
X1400Y347D02*
X1450Y347D01*
X710Y346D02*
X759Y346D01*
X801Y346D02*
X850Y346D01*
X1310Y346D02*
X1359Y346D01*
X1401Y346D02*
X1450Y346D01*
X710Y345D02*
X758Y345D01*
X801Y345D02*
X850Y345D01*
X1310Y345D02*
X1358Y345D01*
X1401Y345D02*
X1450Y345D01*
X710Y344D02*
X758Y344D01*
X802Y344D02*
X850Y344D01*
X1310Y344D02*
X1358Y344D01*
X1402Y344D02*
X1450Y344D01*
X710Y343D02*
X757Y343D01*
X802Y343D02*
X850Y343D01*
X1310Y343D02*
X1357Y343D01*
X1402Y343D02*
X1450Y343D01*
X710Y342D02*
X757Y342D01*
X803Y342D02*
X850Y342D01*
X1310Y342D02*
X1357Y342D01*
X1403Y342D02*
X1450Y342D01*
X710Y341D02*
X757Y341D01*
X803Y341D02*
X850Y341D01*
X1310Y341D02*
X1357Y341D01*
X1403Y341D02*
X1450Y341D01*
X710Y340D02*
X756Y340D01*
X803Y340D02*
X850Y340D01*
X1310Y340D02*
X1356Y340D01*
X1403Y340D02*
X1450Y340D01*
X710Y339D02*
X756Y339D01*
X803Y339D02*
X850Y339D01*
X1310Y339D02*
X1356Y339D01*
X1403Y339D02*
X1450Y339D01*
X710Y338D02*
X756Y338D01*
X804Y338D02*
X850Y338D01*
X1310Y338D02*
X1356Y338D01*
X1403Y338D02*
X1450Y338D01*
X710Y337D02*
X756Y337D01*
X804Y337D02*
X850Y337D01*
X1310Y337D02*
X1356Y337D01*
X1404Y337D02*
X1450Y337D01*
X710Y336D02*
X756Y336D01*
X804Y336D02*
X850Y336D01*
X1310Y336D02*
X1356Y336D01*
X1404Y336D02*
X1450Y336D01*
X710Y335D02*
X756Y335D01*
X804Y335D02*
X850Y335D01*
X1310Y335D02*
X1356Y335D01*
X1404Y335D02*
X1450Y335D01*
X710Y334D02*
X756Y334D01*
X804Y334D02*
X850Y334D01*
X1310Y334D02*
X1356Y334D01*
X1404Y334D02*
X1450Y334D01*
X710Y333D02*
X756Y333D01*
X804Y333D02*
X850Y333D01*
X1310Y333D02*
X1356Y333D01*
X1404Y333D02*
X1450Y333D01*
X710Y332D02*
X756Y332D01*
X804Y332D02*
X850Y332D01*
X1310Y332D02*
X1356Y332D01*
X1404Y332D02*
X1450Y332D01*
X710Y331D02*
X756Y331D01*
X804Y331D02*
X850Y331D01*
X1310Y331D02*
X1356Y331D01*
X1404Y331D02*
X1450Y331D01*
X710Y330D02*
X756Y330D01*
X803Y330D02*
X850Y330D01*
X1310Y330D02*
X1356Y330D01*
X1403Y330D02*
X1450Y330D01*
X710Y329D02*
X756Y329D01*
X803Y329D02*
X850Y329D01*
X1310Y329D02*
X1356Y329D01*
X1403Y329D02*
X1450Y329D01*
X710Y328D02*
X757Y328D01*
X803Y328D02*
X850Y328D01*
X1310Y328D02*
X1357Y328D01*
X1403Y328D02*
X1450Y328D01*
X710Y327D02*
X757Y327D01*
X803Y327D02*
X850Y327D01*
X1310Y327D02*
X1357Y327D01*
X1403Y327D02*
X1450Y327D01*
X710Y326D02*
X757Y326D01*
X802Y326D02*
X850Y326D01*
X1310Y326D02*
X1357Y326D01*
X1402Y326D02*
X1450Y326D01*
X710Y325D02*
X758Y325D01*
X802Y325D02*
X850Y325D01*
X1310Y325D02*
X1358Y325D01*
X1402Y325D02*
X1450Y325D01*
X710Y324D02*
X758Y324D01*
X801Y324D02*
X850Y324D01*
X1310Y324D02*
X1358Y324D01*
X1401Y324D02*
X1450Y324D01*
X710Y323D02*
X759Y323D01*
X801Y323D02*
X850Y323D01*
X1310Y323D02*
X1359Y323D01*
X1401Y323D02*
X1450Y323D01*
X710Y322D02*
X759Y322D01*
X800Y322D02*
X850Y322D01*
X1310Y322D02*
X1359Y322D01*
X1400Y322D02*
X1450Y322D01*
X710Y321D02*
X760Y321D01*
X800Y321D02*
X850Y321D01*
X1310Y321D02*
X1360Y321D01*
X1400Y321D02*
X1450Y321D01*
X710Y320D02*
X761Y320D01*
X799Y320D02*
X850Y320D01*
X1310Y320D02*
X1361Y320D01*
X1399Y320D02*
X1450Y320D01*
X710Y319D02*
X762Y319D01*
X798Y319D02*
X850Y319D01*
X1310Y319D02*
X1362Y319D01*
X1398Y319D02*
X1450Y319D01*
X710Y318D02*
X762Y318D01*
X797Y318D02*
X850Y318D01*
X1310Y318D02*
X1362Y318D01*
X1397Y318D02*
X1450Y318D01*
X710Y317D02*
X764Y317D01*
X796Y317D02*
X850Y317D01*
X1310Y317D02*
X1363Y317D01*
X1396Y317D02*
X1450Y317D01*
X710Y316D02*
X765Y316D01*
X795Y316D02*
X850Y316D01*
X1310Y316D02*
X1365Y316D01*
X1395Y316D02*
X1450Y316D01*
X710Y315D02*
X766Y315D01*
X794Y315D02*
X850Y315D01*
X1310Y315D02*
X1366Y315D01*
X1394Y315D02*
X1450Y315D01*
X710Y314D02*
X768Y314D01*
X792Y314D02*
X850Y314D01*
X1310Y314D02*
X1367Y314D01*
X1392Y314D02*
X1450Y314D01*
X710Y313D02*
X769Y313D01*
X790Y313D02*
X850Y313D01*
X1310Y313D02*
X1369Y313D01*
X1390Y313D02*
X1450Y313D01*
X710Y312D02*
X772Y312D01*
X788Y312D02*
X850Y312D01*
X1310Y312D02*
X1372Y312D01*
X1388Y312D02*
X1450Y312D01*
X710Y311D02*
X850Y311D01*
X1310Y311D02*
X1450Y311D01*
X710Y310D02*
X850Y310D01*
X1310Y310D02*
X1450Y310D01*
X710Y309D02*
X850Y309D01*
X1310Y309D02*
X1450Y309D01*
X710Y308D02*
X850Y308D01*
X1310Y308D02*
X1450Y308D01*
X710Y307D02*
X850Y307D01*
X1310Y307D02*
X1450Y307D01*
X710Y306D02*
X850Y306D01*
X1310Y306D02*
X1450Y306D01*
X710Y305D02*
X850Y305D01*
X1310Y305D02*
X1450Y305D01*
X710Y304D02*
X850Y304D01*
X1310Y304D02*
X1450Y304D01*
X710Y303D02*
X850Y303D01*
X1310Y303D02*
X1450Y303D01*
X710Y302D02*
X850Y302D01*
X1310Y302D02*
X1450Y302D01*
X710Y301D02*
X850Y301D01*
X1310Y301D02*
X1450Y301D01*
X779Y268D02*
X781Y268D01*
X1379Y268D02*
X1381Y268D01*
X710Y267D02*
X850Y267D01*
X1310Y267D02*
X1450Y267D01*
X710Y266D02*
X850Y266D01*
X1310Y266D02*
X1450Y266D01*
X710Y265D02*
X850Y265D01*
X1310Y265D02*
X1450Y265D01*
X710Y264D02*
X850Y264D01*
X1310Y264D02*
X1450Y264D01*
X710Y263D02*
X850Y263D01*
X1310Y263D02*
X1450Y263D01*
X710Y262D02*
X850Y262D01*
X1310Y262D02*
X1450Y262D01*
X710Y261D02*
X850Y261D01*
X1310Y261D02*
X1450Y261D01*
X710Y260D02*
X850Y260D01*
X1310Y260D02*
X1450Y260D01*
X710Y259D02*
X850Y259D01*
X1310Y259D02*
X1450Y259D01*
X710Y258D02*
X850Y258D01*
X1310Y258D02*
X1450Y258D01*
X710Y257D02*
X773Y257D01*
X787Y257D02*
X850Y257D01*
X1310Y257D02*
X1373Y257D01*
X1387Y257D02*
X1450Y257D01*
X710Y256D02*
X770Y256D01*
X790Y256D02*
X850Y256D01*
X1310Y256D02*
X1370Y256D01*
X1389Y256D02*
X1450Y256D01*
X710Y255D02*
X768Y255D01*
X791Y255D02*
X850Y255D01*
X1310Y255D02*
X1368Y255D01*
X1391Y255D02*
X1450Y255D01*
X710Y254D02*
X766Y254D01*
X793Y254D02*
X850Y254D01*
X1310Y254D02*
X1366Y254D01*
X1393Y254D02*
X1450Y254D01*
X710Y253D02*
X765Y253D01*
X794Y253D02*
X850Y253D01*
X1310Y253D02*
X1365Y253D01*
X1394Y253D02*
X1450Y253D01*
X710Y252D02*
X764Y252D01*
X796Y252D02*
X850Y252D01*
X1310Y252D02*
X1364Y252D01*
X1396Y252D02*
X1450Y252D01*
X710Y251D02*
X763Y251D01*
X797Y251D02*
X850Y251D01*
X1310Y251D02*
X1363Y251D01*
X1397Y251D02*
X1450Y251D01*
X710Y250D02*
X762Y250D01*
X798Y250D02*
X850Y250D01*
X1310Y250D02*
X1362Y250D01*
X1398Y250D02*
X1450Y250D01*
X710Y249D02*
X761Y249D01*
X799Y249D02*
X850Y249D01*
X1310Y249D02*
X1361Y249D01*
X1398Y249D02*
X1450Y249D01*
X710Y248D02*
X760Y248D01*
X799Y248D02*
X850Y248D01*
X1310Y248D02*
X1360Y248D01*
X1399Y248D02*
X1450Y248D01*
X710Y247D02*
X760Y247D01*
X800Y247D02*
X850Y247D01*
X1310Y247D02*
X1359Y247D01*
X1400Y247D02*
X1450Y247D01*
X710Y246D02*
X759Y246D01*
X801Y246D02*
X850Y246D01*
X1310Y246D02*
X1359Y246D01*
X1401Y246D02*
X1450Y246D01*
X710Y245D02*
X758Y245D01*
X801Y245D02*
X850Y245D01*
X1310Y245D02*
X1358Y245D01*
X1401Y245D02*
X1450Y245D01*
X710Y244D02*
X758Y244D01*
X802Y244D02*
X850Y244D01*
X1310Y244D02*
X1358Y244D01*
X1402Y244D02*
X1450Y244D01*
X710Y243D02*
X757Y243D01*
X802Y243D02*
X850Y243D01*
X1310Y243D02*
X1357Y243D01*
X1402Y243D02*
X1450Y243D01*
X710Y242D02*
X757Y242D01*
X803Y242D02*
X850Y242D01*
X1310Y242D02*
X1357Y242D01*
X1403Y242D02*
X1450Y242D01*
X710Y241D02*
X757Y241D01*
X803Y241D02*
X850Y241D01*
X1310Y241D02*
X1357Y241D01*
X1403Y241D02*
X1450Y241D01*
X710Y240D02*
X756Y240D01*
X803Y240D02*
X850Y240D01*
X1310Y240D02*
X1356Y240D01*
X1403Y240D02*
X1450Y240D01*
X710Y239D02*
X756Y239D01*
X803Y239D02*
X850Y239D01*
X1310Y239D02*
X1356Y239D01*
X1403Y239D02*
X1450Y239D01*
X710Y238D02*
X756Y238D01*
X804Y238D02*
X850Y238D01*
X1310Y238D02*
X1356Y238D01*
X1403Y238D02*
X1450Y238D01*
X710Y237D02*
X756Y237D01*
X804Y237D02*
X850Y237D01*
X1310Y237D02*
X1356Y237D01*
X1404Y237D02*
X1450Y237D01*
X710Y236D02*
X756Y236D01*
X804Y236D02*
X850Y236D01*
X1310Y236D02*
X1356Y236D01*
X1404Y236D02*
X1450Y236D01*
X710Y235D02*
X756Y235D01*
X804Y235D02*
X850Y235D01*
X1310Y235D02*
X1356Y235D01*
X1404Y235D02*
X1450Y235D01*
X710Y234D02*
X756Y234D01*
X804Y234D02*
X850Y234D01*
X1310Y234D02*
X1356Y234D01*
X1404Y234D02*
X1450Y234D01*
X710Y233D02*
X756Y233D01*
X804Y233D02*
X850Y233D01*
X1310Y233D02*
X1356Y233D01*
X1404Y233D02*
X1450Y233D01*
X710Y232D02*
X756Y232D01*
X804Y232D02*
X850Y232D01*
X1310Y232D02*
X1356Y232D01*
X1404Y232D02*
X1450Y232D01*
X710Y231D02*
X756Y231D01*
X804Y231D02*
X850Y231D01*
X1310Y231D02*
X1356Y231D01*
X1404Y231D02*
X1450Y231D01*
X710Y230D02*
X756Y230D01*
X803Y230D02*
X850Y230D01*
X1310Y230D02*
X1356Y230D01*
X1403Y230D02*
X1450Y230D01*
X710Y229D02*
X756Y229D01*
X803Y229D02*
X850Y229D01*
X1310Y229D02*
X1356Y229D01*
X1403Y229D02*
X1450Y229D01*
X710Y228D02*
X757Y228D01*
X803Y228D02*
X850Y228D01*
X1310Y228D02*
X1357Y228D01*
X1403Y228D02*
X1450Y228D01*
X710Y227D02*
X757Y227D01*
X803Y227D02*
X850Y227D01*
X1310Y227D02*
X1357Y227D01*
X1403Y227D02*
X1450Y227D01*
X710Y226D02*
X757Y226D01*
X802Y226D02*
X850Y226D01*
X1310Y226D02*
X1357Y226D01*
X1402Y226D02*
X1450Y226D01*
X710Y225D02*
X758Y225D01*
X802Y225D02*
X850Y225D01*
X1310Y225D02*
X1358Y225D01*
X1402Y225D02*
X1450Y225D01*
X710Y224D02*
X758Y224D01*
X801Y224D02*
X850Y224D01*
X1310Y224D02*
X1358Y224D01*
X1401Y224D02*
X1450Y224D01*
X710Y223D02*
X759Y223D01*
X801Y223D02*
X850Y223D01*
X1310Y223D02*
X1359Y223D01*
X1401Y223D02*
X1450Y223D01*
X710Y222D02*
X759Y222D01*
X800Y222D02*
X850Y222D01*
X1310Y222D02*
X1359Y222D01*
X1400Y222D02*
X1450Y222D01*
X710Y221D02*
X760Y221D01*
X800Y221D02*
X850Y221D01*
X1310Y221D02*
X1360Y221D01*
X1400Y221D02*
X1450Y221D01*
X710Y220D02*
X761Y220D01*
X799Y220D02*
X850Y220D01*
X1310Y220D02*
X1361Y220D01*
X1399Y220D02*
X1450Y220D01*
X710Y219D02*
X762Y219D01*
X798Y219D02*
X850Y219D01*
X1310Y219D02*
X1362Y219D01*
X1398Y219D02*
X1450Y219D01*
X710Y218D02*
X762Y218D01*
X797Y218D02*
X850Y218D01*
X1310Y218D02*
X1362Y218D01*
X1397Y218D02*
X1450Y218D01*
X710Y217D02*
X764Y217D01*
X796Y217D02*
X850Y217D01*
X1310Y217D02*
X1363Y217D01*
X1396Y217D02*
X1450Y217D01*
X710Y216D02*
X765Y216D01*
X795Y216D02*
X850Y216D01*
X1310Y216D02*
X1365Y216D01*
X1395Y216D02*
X1450Y216D01*
X710Y215D02*
X766Y215D01*
X794Y215D02*
X850Y215D01*
X1310Y215D02*
X1366Y215D01*
X1394Y215D02*
X1450Y215D01*
X710Y214D02*
X768Y214D01*
X792Y214D02*
X850Y214D01*
X1310Y214D02*
X1367Y214D01*
X1392Y214D02*
X1450Y214D01*
X710Y213D02*
X769Y213D01*
X790Y213D02*
X850Y213D01*
X1310Y213D02*
X1369Y213D01*
X1390Y213D02*
X1450Y213D01*
X710Y212D02*
X772Y212D01*
X788Y212D02*
X850Y212D01*
X1310Y212D02*
X1372Y212D01*
X1388Y212D02*
X1450Y212D01*
X710Y211D02*
X850Y211D01*
X1310Y211D02*
X1450Y211D01*
X710Y210D02*
X850Y210D01*
X1310Y210D02*
X1450Y210D01*
X710Y209D02*
X850Y209D01*
X1310Y209D02*
X1450Y209D01*
X710Y208D02*
X850Y208D01*
X1310Y208D02*
X1450Y208D01*
X710Y207D02*
X850Y207D01*
X1310Y207D02*
X1450Y207D01*
X710Y206D02*
X850Y206D01*
X1310Y206D02*
X1450Y206D01*
X710Y205D02*
X850Y205D01*
X1310Y205D02*
X1450Y205D01*
X710Y204D02*
X850Y204D01*
X1310Y204D02*
X1450Y204D01*
X710Y203D02*
X850Y203D01*
X1310Y203D02*
X1450Y203D01*
X710Y202D02*
X850Y202D01*
X1310Y202D02*
X1450Y202D01*
X710Y201D02*
X850Y201D01*
X1310Y201D02*
X1450Y201D01*
X778Y168D02*
X782Y168D01*
X1378Y168D02*
X1382Y168D01*
X710Y167D02*
X850Y167D01*
X1310Y167D02*
X1450Y167D01*
X710Y166D02*
X850Y166D01*
X1310Y166D02*
X1450Y166D01*
X710Y165D02*
X850Y165D01*
X1310Y165D02*
X1450Y165D01*
X710Y164D02*
X850Y164D01*
X1310Y164D02*
X1450Y164D01*
X710Y163D02*
X850Y163D01*
X1310Y163D02*
X1450Y163D01*
X710Y162D02*
X850Y162D01*
X1310Y162D02*
X1450Y162D01*
X710Y161D02*
X850Y161D01*
X1310Y161D02*
X1450Y161D01*
X710Y160D02*
X850Y160D01*
X1310Y160D02*
X1450Y160D01*
X710Y159D02*
X850Y159D01*
X1310Y159D02*
X1450Y159D01*
X710Y158D02*
X850Y158D01*
X1310Y158D02*
X1450Y158D01*
X710Y157D02*
X773Y157D01*
X787Y157D02*
X850Y157D01*
X1310Y157D02*
X1373Y157D01*
X1387Y157D02*
X1450Y157D01*
X710Y156D02*
X770Y156D01*
X790Y156D02*
X850Y156D01*
X1310Y156D02*
X1370Y156D01*
X1389Y156D02*
X1450Y156D01*
X710Y155D02*
X768Y155D01*
X791Y155D02*
X850Y155D01*
X1310Y155D02*
X1368Y155D01*
X1391Y155D02*
X1450Y155D01*
X710Y154D02*
X766Y154D01*
X793Y154D02*
X850Y154D01*
X1310Y154D02*
X1366Y154D01*
X1393Y154D02*
X1450Y154D01*
X710Y153D02*
X765Y153D01*
X794Y153D02*
X850Y153D01*
X1310Y153D02*
X1365Y153D01*
X1394Y153D02*
X1450Y153D01*
X710Y152D02*
X764Y152D01*
X796Y152D02*
X850Y152D01*
X1310Y152D02*
X1364Y152D01*
X1396Y152D02*
X1450Y152D01*
X710Y151D02*
X763Y151D01*
X797Y151D02*
X850Y151D01*
X1310Y151D02*
X1363Y151D01*
X1397Y151D02*
X1450Y151D01*
X710Y150D02*
X762Y150D01*
X798Y150D02*
X850Y150D01*
X1310Y150D02*
X1362Y150D01*
X1398Y150D02*
X1450Y150D01*
X710Y149D02*
X761Y149D01*
X799Y149D02*
X850Y149D01*
X1310Y149D02*
X1361Y149D01*
X1398Y149D02*
X1450Y149D01*
X710Y148D02*
X760Y148D01*
X799Y148D02*
X850Y148D01*
X1310Y148D02*
X1360Y148D01*
X1399Y148D02*
X1450Y148D01*
X710Y147D02*
X760Y147D01*
X800Y147D02*
X850Y147D01*
X1310Y147D02*
X1359Y147D01*
X1400Y147D02*
X1450Y147D01*
X710Y146D02*
X759Y146D01*
X801Y146D02*
X850Y146D01*
X1310Y146D02*
X1359Y146D01*
X1401Y146D02*
X1450Y146D01*
X710Y145D02*
X758Y145D01*
X801Y145D02*
X850Y145D01*
X1310Y145D02*
X1358Y145D01*
X1401Y145D02*
X1450Y145D01*
X710Y144D02*
X758Y144D01*
X802Y144D02*
X850Y144D01*
X1310Y144D02*
X1358Y144D01*
X1402Y144D02*
X1450Y144D01*
X710Y143D02*
X757Y143D01*
X802Y143D02*
X850Y143D01*
X1310Y143D02*
X1357Y143D01*
X1402Y143D02*
X1450Y143D01*
X710Y142D02*
X757Y142D01*
X803Y142D02*
X850Y142D01*
X1310Y142D02*
X1357Y142D01*
X1403Y142D02*
X1450Y142D01*
X710Y141D02*
X757Y141D01*
X803Y141D02*
X850Y141D01*
X1310Y141D02*
X1357Y141D01*
X1403Y141D02*
X1450Y141D01*
X710Y140D02*
X756Y140D01*
X803Y140D02*
X850Y140D01*
X1310Y140D02*
X1356Y140D01*
X1403Y140D02*
X1450Y140D01*
X710Y139D02*
X756Y139D01*
X803Y139D02*
X850Y139D01*
X1310Y139D02*
X1356Y139D01*
X1403Y139D02*
X1450Y139D01*
X710Y138D02*
X756Y138D01*
X804Y138D02*
X850Y138D01*
X1310Y138D02*
X1356Y138D01*
X1403Y138D02*
X1450Y138D01*
X710Y137D02*
X756Y137D01*
X804Y137D02*
X850Y137D01*
X1310Y137D02*
X1356Y137D01*
X1404Y137D02*
X1450Y137D01*
X710Y136D02*
X756Y136D01*
X804Y136D02*
X850Y136D01*
X1310Y136D02*
X1356Y136D01*
X1404Y136D02*
X1450Y136D01*
X710Y135D02*
X756Y135D01*
X804Y135D02*
X850Y135D01*
X1310Y135D02*
X1356Y135D01*
X1404Y135D02*
X1450Y135D01*
X710Y134D02*
X756Y134D01*
X804Y134D02*
X850Y134D01*
X1310Y134D02*
X1356Y134D01*
X1404Y134D02*
X1450Y134D01*
X710Y133D02*
X756Y133D01*
X804Y133D02*
X850Y133D01*
X1310Y133D02*
X1356Y133D01*
X1404Y133D02*
X1450Y133D01*
X710Y132D02*
X756Y132D01*
X804Y132D02*
X850Y132D01*
X1310Y132D02*
X1356Y132D01*
X1404Y132D02*
X1450Y132D01*
X710Y131D02*
X756Y131D01*
X804Y131D02*
X850Y131D01*
X1310Y131D02*
X1356Y131D01*
X1404Y131D02*
X1450Y131D01*
X710Y130D02*
X756Y130D01*
X803Y130D02*
X850Y130D01*
X1310Y130D02*
X1356Y130D01*
X1403Y130D02*
X1450Y130D01*
X710Y129D02*
X756Y129D01*
X803Y129D02*
X850Y129D01*
X1310Y129D02*
X1356Y129D01*
X1403Y129D02*
X1450Y129D01*
X710Y128D02*
X757Y128D01*
X803Y128D02*
X850Y128D01*
X1310Y128D02*
X1357Y128D01*
X1403Y128D02*
X1450Y128D01*
X710Y127D02*
X757Y127D01*
X803Y127D02*
X850Y127D01*
X1310Y127D02*
X1357Y127D01*
X1403Y127D02*
X1450Y127D01*
X710Y126D02*
X757Y126D01*
X802Y126D02*
X850Y126D01*
X1310Y126D02*
X1357Y126D01*
X1402Y126D02*
X1450Y126D01*
X710Y125D02*
X758Y125D01*
X802Y125D02*
X850Y125D01*
X1310Y125D02*
X1358Y125D01*
X1402Y125D02*
X1450Y125D01*
X710Y124D02*
X758Y124D01*
X801Y124D02*
X850Y124D01*
X1310Y124D02*
X1358Y124D01*
X1401Y124D02*
X1450Y124D01*
X710Y123D02*
X759Y123D01*
X801Y123D02*
X850Y123D01*
X1310Y123D02*
X1359Y123D01*
X1401Y123D02*
X1450Y123D01*
X710Y122D02*
X759Y122D01*
X800Y122D02*
X850Y122D01*
X1310Y122D02*
X1359Y122D01*
X1400Y122D02*
X1450Y122D01*
X710Y121D02*
X760Y121D01*
X800Y121D02*
X850Y121D01*
X1310Y121D02*
X1360Y121D01*
X1400Y121D02*
X1450Y121D01*
X710Y120D02*
X761Y120D01*
X799Y120D02*
X850Y120D01*
X1310Y120D02*
X1361Y120D01*
X1399Y120D02*
X1450Y120D01*
X710Y119D02*
X762Y119D01*
X798Y119D02*
X850Y119D01*
X1310Y119D02*
X1362Y119D01*
X1398Y119D02*
X1450Y119D01*
X710Y118D02*
X762Y118D01*
X797Y118D02*
X850Y118D01*
X1310Y118D02*
X1362Y118D01*
X1397Y118D02*
X1450Y118D01*
X710Y117D02*
X764Y117D01*
X796Y117D02*
X850Y117D01*
X1310Y117D02*
X1363Y117D01*
X1396Y117D02*
X1450Y117D01*
X710Y116D02*
X765Y116D01*
X795Y116D02*
X850Y116D01*
X1310Y116D02*
X1365Y116D01*
X1395Y116D02*
X1450Y116D01*
X710Y115D02*
X766Y115D01*
X794Y115D02*
X850Y115D01*
X1310Y115D02*
X1366Y115D01*
X1394Y115D02*
X1450Y115D01*
X710Y114D02*
X768Y114D01*
X792Y114D02*
X850Y114D01*
X1310Y114D02*
X1367Y114D01*
X1392Y114D02*
X1450Y114D01*
X710Y113D02*
X769Y113D01*
X790Y113D02*
X850Y113D01*
X1310Y113D02*
X1369Y113D01*
X1390Y113D02*
X1450Y113D01*
X710Y112D02*
X772Y112D01*
X788Y112D02*
X850Y112D01*
X1310Y112D02*
X1372Y112D01*
X1388Y112D02*
X1450Y112D01*
X710Y111D02*
X850Y111D01*
X1310Y111D02*
X1450Y111D01*
X710Y110D02*
X850Y110D01*
X1310Y110D02*
X1450Y110D01*
X710Y109D02*
X850Y109D01*
X1310Y109D02*
X1450Y109D01*
X710Y108D02*
X850Y108D01*
X1310Y108D02*
X1450Y108D01*
X710Y107D02*
X850Y107D01*
X1310Y107D02*
X1450Y107D01*
X710Y106D02*
X850Y106D01*
X1310Y106D02*
X1450Y106D01*
X710Y105D02*
X850Y105D01*
X1310Y105D02*
X1450Y105D01*
X710Y104D02*
X850Y104D01*
X1310Y104D02*
X1450Y104D01*
X710Y103D02*
X850Y103D01*
X1310Y103D02*
X1450Y103D01*
X710Y102D02*
X850Y102D01*
X1310Y102D02*
X1450Y102D01*
X710Y101D02*
X850Y101D01*
X1310Y101D02*
X1450Y101D01*
D02*
G04 End of Mask1*
M02*